<svg width="76" height="75" viewBox="0 0 76 75" fill="none" xmlns="http://www.w3.org/2000/svg">
<g clip-path="url(#clip0_6_362)">
<rect x="19.2222" width="18" height="18" rx="3" fill="white"/>
<path d="M37.2222 16V2C37.2222 1 36.2222 0 35.2222 0H21.2222C20.2222 0 19.2222 1 19.2222 2V16C19.2222 17 20.2222 18 21.2222 18H35.2222C36.2222 18 37.2222 17 37.2222 16Z" fill="#151515"/>
<path d="M29.9365 10C30.365 10 34.2222 11.5 34.2222 12C34.2222 12 31.2222 14 28.2222 14C25.2222 14 22.2222 12 22.2222 12C22.2222 11.5 26.0793 10 26.5079 10C26.9365 10 27.7936 11 28.2222 11C28.6507 11 29.5079 10 29.9365 10Z" fill="white"/>
</g>
<g clip-path="url(#clip1_6_362)">
<rect x="0.222168" width="18" height="18" rx="3" fill="white"/>
<path d="M18.2222 16V2C18.2222 1 17.2222 0 16.2222 0H2.22217C1.22217 0 0.222168 1 0.222168 2V16C0.222168 17 1.22217 18 2.22217 18H16.2222C17.2222 18 18.2222 17 18.2222 16Z" fill="#151515"/>
<path d="M11.2222 10C10.7222 10.5 9.72222 11 9.22222 11C8.72222 11 7.72222 10.5 7.22222 10C6.72222 9.5 7.22222 9 7.22222 9C7.22222 9 8.22222 7.5 8.22222 7V3H10.2222V7C10.2222 7.5 11.2222 9 11.2222 9C11.2222 9 11.7222 9.5 11.2222 10Z" fill="white"/>
<path d="M11.2222 12C11.6507 12 15.2221 12.5 15.2222 13C15.2222 13.5 12.2222 14 9.22217 14C6.22217 14 3.2222 13.5 3.22217 13C3.22214 12.5 6.7936 12 7.22217 12H9.22217H11.2222Z" fill="white"/>
</g>
<g clip-path="url(#clip2_6_362)">
<rect x="39.2222" width="17.0002" height="18" rx="3" fill="white"/>
<path fill-rule="evenodd" clip-rule="evenodd" d="M50.121 18C50.6524 17.3526 51.2223 16.5338 51.2223 16C51.2223 15 50.2223 14 50.2223 14C50.2223 14 40.2223 12.5 43.2223 11C46.2223 9.5 48.2223 8 48.2223 8L47.2223 6L49.2223 5L45.2223 2L43.889 0H54.2223C55.2223 0 56.2223 1 56.2223 2V16C56.2223 17 55.2223 18 54.2223 18H50.121Z" fill="#151515"/>
<path d="M52.2222 4.5C52.5597 4.5 52.846 4.41419 53.0776 4.25978C53.3061 4.10745 53.4522 3.90792 53.5444 3.72361C53.5725 3.66746 53.596 3.61188 53.6157 3.55815C53.5912 3.62997 53.5613 3.70361 53.525 3.77639C53.4296 3.96708 53.2945 4.14255 53.1011 4.27147C52.9108 4.39831 52.6347 4.5 52.2222 4.5ZM52.2222 4.5C51.8847 4.5 51.5983 4.41419 51.3667 4.25978C51.1382 4.10745 50.9921 3.90792 50.9 3.72361C50.8719 3.66745 50.8484 3.61188 50.8286 3.55815C50.8531 3.62996 50.883 3.70361 50.9194 3.77639C51.0147 3.96708 51.1499 4.14255 51.3433 4.27147C51.5335 4.39831 51.8097 4.5 52.2222 4.5Z" fill="white" stroke="white"/>
<path d="M40.2222 3C40.2222 3 40.2222 5 42.2222 5C44.2222 5 44.2222 3 44.2222 3H43.2222C43.2222 3 43.2222 4 42.2222 4C41.2222 4 41.2222 3 41.2222 3H40.2222Z" fill="#151515"/>
</g>
<g clip-path="url(#clip3_6_362)">
<rect x="57.2222" width="18" height="18" rx="3" fill="white"/>
<path fill-rule="evenodd" clip-rule="evenodd" d="M75.2222 16V2C75.2222 1 74.2222 0 73.2222 0H59.2222C58.2222 0 57.2222 1 57.2222 2V16C57.2222 17 58.2222 18 59.2222 18H73.2222C74.2222 18 75.2222 17 75.2222 16ZM69.2221 16C69.2221 17 68.2222 17 68.2222 17H59.2221C58.7221 17 58.2221 16.5 58.2221 16V2C58.2221 1.5 58.7221 1 59.2221 1H64.2221L68.2222 5L66.2222 6L67.2222 8C67.2222 8 65.2221 9.5 62.2221 11C59.2222 12.5 68.2221 14 68.2221 14C68.2221 14 69.2221 15 69.2221 16ZM71.2221 5C69.2221 5 69.2221 3 69.2221 3H70.2221C70.2221 3 70.2221 4 71.2221 4C72.2221 4 72.2221 3 72.2221 3H73.2221C73.2221 3 73.2221 5 71.2221 5Z" fill="#151515"/>
<path d="M59.2221 3C59.2221 3 59.2221 5 61.2221 5C63.2221 5 63.2221 3 63.2221 3H62.2221C62.2221 3 62.2221 4 61.2221 4C60.2221 4 60.2221 3 60.2221 3H59.2221Z" fill="#151515"/>
</g>
<g clip-path="url(#clip4_6_362)">
<rect y="38" width="18" height="18" rx="3" fill="white"/>
<path fill-rule="evenodd" clip-rule="evenodd" d="M18 54C18 55 17 56 16 56H2C1 56 0 55 0 54V40C0 39 1 38 2 38H16C17 38 18 39 18 40V54ZM11 52C11 52 2 50.5 4.99997 49C7.99994 47.5 10 46 10 46L9 44L11 43L6.99994 39H5H1.99994C1.49994 39 0.999939 39.5 0.999939 40V54C0.999939 54.5 1.49994 55 1.99994 55H11L11 52ZM16 45L12 46V47L16 46V45ZM12 48H16V49H12V48ZM16 51L12 50V51L16 52V51ZM4 44C2 44 2 42 2 42H3C3 42 3 43 4 43C5 43 5 42 5 42H6C6 42 6 44 4 44Z" fill="#151515"/>
</g>
<g clip-path="url(#clip5_6_362)">
<rect x="19" y="38" width="18" height="18" rx="3" fill="white"/>
<path d="M26 44C24 44 24 42 24 42H25C25 42 25 43 26 43C27 43 27 42 27 42H28C28 42 28 44 26 44Z" fill="#151515"/>
<path fill-rule="evenodd" clip-rule="evenodd" d="M37 40C37 39 36 38 35 38H21C20 38 19 39 19 40V54C19 55 20 56 21 56H35C36 56 37 55 37 54V40ZM19.9999 50.6657V54C19.9999 54.5 20.4999 55 20.9999 55H31V53C31 53 24 50.5 27 49C29.9999 47.5 32 46 32 46L31 44L33 43L28.9999 39H20.9999C20.4999 39 19.9999 39.5 19.9999 40V42.1422C21.3333 42.5505 22 43.7752 22 45C22 46.5 21.5 48 20 48C20 48 21 50.5 22 51C23 51.5 27 52 27 52V53C27 53 22 52.5 21 52C20.6527 51.8263 20.3054 51.2908 19.9999 50.6657ZM35 47L32 48V49L35 48V47ZM32 50H35V51H32V50ZM35 53L32 52V53L35 54V53Z" fill="#151515"/>
</g>
<g clip-path="url(#clip6_6_362)">
<rect x="57" y="57" width="18" height="18" rx="3" fill="white"/>
<path fill-rule="evenodd" clip-rule="evenodd" d="M73 57C74 57 75 58 75 59V73C75 74 74 75 73 75H59C58 75 57 74 57 73V59C57 58 58 57 59 57H73ZM66 71C66 71 58 68 61 68C64 68 66 67 66 67V65H67C67 65 65 62 65 60V58H58.9999C58.4999 58 57.9999 58.5 57.9999 59V73C57.9999 73.5 58.4999 74 58.9999 74H65C65.5 74 66 73.5 66 73V71ZM60 61C60 61 60 63 62 63C64 63 64 61 64 61H63C63 61 63 62 62 62C61 62 61 61 61 61H60ZM71 66C73 66 74 67 74 69C74 71 73 72 71 72C68 72 65 69 65 69C65 69 68 66 71 66Z" fill="#151515"/>
</g>
<g clip-path="url(#clip7_6_362)">
<rect x="38" y="57" width="18" height="18" rx="3" fill="white"/>
<path fill-rule="evenodd" clip-rule="evenodd" d="M54 75C55 75 56 74 56 73V59C56 58 55 57 54 57H40C39 57 38 58 38 59V73C38 74 39 75 40 75H54ZM44 67C44 71 50.0001 71 50.0001 71V73C50.0001 73.5 49.5001 74 49.0001 74H40C39.5 74 39 73.5 39 73V59C39 58.5 39.5 58 40 58H50.0001V60C50.0001 62 52.0001 65 52.0001 65H50.0001V67H44ZM47 66C45 66 45 64 45 64H46C46 64 46 65 47 65C48 65 48 64 48 64H49C49 64 49 66 47 66Z" fill="#151515"/>
</g>
<g clip-path="url(#clip8_6_362)">
<rect x="19.0001" y="57" width="18" height="18" rx="3" fill="white"/>
<path d="M37.0001 73V59C37.0001 58 36.0001 57 35.0001 57H21.0001C20.0001 57 19.0001 58 19.0001 59V73C19.0001 74 20.0001 75 21.0001 75H35.0001C36.0001 75 37.0001 74 37.0001 73Z" fill="#151515"/>
<path d="M32.5001 64L33.5001 66L26.0001 67.5L28.5001 60.5L30.5001 61.5L31.5001 60.5L30.5001 59L32.0001 58L36.5001 63L35.0001 64L34.0001 63L32.5001 64Z" fill="white"/>
</g>
<g clip-path="url(#clip9_6_362)">
<rect y="57" width="18.0001" height="18" rx="3" fill="white"/>
<path d="M17.5001 59V73C17.5001 73.3374 17.3264 73.7166 17.0216 74.0214C16.7167 74.3263 16.3375 74.5 16.0001 74.5H2.00012C1.66274 74.5 1.2835 74.3263 0.978675 74.0214C0.673848 73.7166 0.500122 73.3374 0.500122 73V59C0.500122 58.6626 0.673848 58.2834 0.978675 57.9786C1.2835 57.6737 1.66274 57.5 2.00012 57.5H16.0001C16.3375 57.5 16.7167 57.6737 17.0216 57.9786C17.3264 58.2834 17.5001 58.6626 17.5001 59Z" stroke="#151515"/>
<path fill-rule="evenodd" clip-rule="evenodd" d="M13.0001 60V58H6.00012V60H7.00012C7.00012 60 8.00012 62 6.00012 64C7.63905 64 8.94222 68.3649 9.35934 69.9409C9.15174 68.3215 9.00012 63.7273 9.00012 63.5C9.00012 63.2239 9.22398 63 9.50012 63C9.77626 63 10.0001 63.2239 10.0001 63.5C10.0001 63.7273 9.8485 68.3215 9.64091 69.9409C10.058 68.3649 11.3612 64 13.0001 64C11.0001 62 12.0001 60 12.0001 60H13.0001Z" fill="#151515"/>
<path d="M9 72L9.5 70L10 72C10.5 74 14 66 18 66C18.0001 67 18 73 18 73L16 75H2L3.17891e-06 73V66C5.00007 66 8.5 74 9 72Z" fill="#151515"/>
</g>
<g clip-path="url(#clip10_6_362)">
<rect x="19.0001" y="19" width="18" height="18" rx="3" fill="white"/>
<mask id="mask0_6_362" style="mask-type:alpha" maskUnits="userSpaceOnUse" x="19" y="19" width="19" height="18">
<path d="M36.5001 21V35C36.5001 35.3374 36.3264 35.7166 36.0216 36.0214C35.7167 36.3263 35.3375 36.5 35.0001 36.5H21.0001C20.6627 36.5 20.2835 36.3263 19.9787 36.0214C19.6738 35.7166 19.5001 35.3374 19.5001 35V21C19.5001 20.6626 19.6738 20.2834 19.9787 19.9786C20.2835 19.6737 20.6627 19.5 21.0001 19.5H35.0001C35.3375 19.5 35.7167 19.6737 36.0216 19.9786C36.3264 20.2834 36.5001 20.6626 36.5001 21Z" fill="#D9D9D9" stroke="#151515"/>
</mask>
<g mask="url(#mask0_6_362)">
<path fill-rule="evenodd" clip-rule="evenodd" d="M38.6216 22.8734L39.9177 20.5366L31.7386 16L30.4425 18.3369L31.6109 18.985C31.6109 18.985 31.4832 21.9699 27.8502 23.0106C29.7652 24.0728 28.4591 30.0174 27.925 32.1293C28.732 30.1025 31.5323 24.6362 31.6795 24.3707C31.8585 24.048 32.2651 23.9315 32.5878 24.1105C32.9104 24.2894 33.0269 24.6961 32.848 25.0187C32.7007 25.2843 29.5461 30.5541 28.254 32.3118C29.7628 30.7406 34.1143 26.485 36.0293 27.5472C34.9885 23.9142 37.4531 22.2254 37.4531 22.2254L38.6216 22.8734Z" fill="#151515"/>
<path d="M27.6667 34C29.6667 34 27.6667 32 27.6667 32C27.6667 32 29.1667 33 29.6667 34C30.1667 35 30.1667 36 27.6667 36C23.6668 35 23.6668 31 17.6667 34C11.6666 37 17.6667 26 17.6667 25C22.6668 25 25.6667 34 27.6667 34Z" fill="#151515"/>
</g>
</g>
<path d="M18 35V21C18 20 17 19 16 19H2C1 19 0 20 0 21V35C0 36 1 37 2 37H16C17 37 18 36 18 35Z" fill="#151515"/>
<path d="M15 25C14.5 25.5 3.5 25.5 3 25C2.5 24.5 4 24.5 4 24C4 23.625 2 22.25 2 22C2 21.5 2.5 21 3 21H15C15.5 21 16 21.5 16 22C16 22.25 14 23.625 14 24C14 24.5 15.5 24.5 15 25Z" fill="white"/>
<path d="M7.83709 30.8955C8.40326 29.8242 9 28.3154 9 28C9 27.5 7 30.5 5 30.5C3 30.5 3.35 28 3 28H2C1.65 28 1 28.5 1 29V30C1 31 2 32 3 32L3.36308 32C3.75361 32 4 32.3166 4 32.7071C4 32.8946 4.0745 33.0745 4.20711 33.2071L4.79289 33.7929C4.9255 33.9255 5 34.1054 5 34.2929V34.5C5 34.7761 5.22386 35 5.5 35C5.77614 35 6 34.7761 6 34.5C6 34.2239 6.22386 34 6.5 34C6.77614 34 7 34.2239 7 34.5C7 34.7761 7.22386 35 7.5 35C7.77614 35 8 34.7761 8 34.5V34.2929C8 34.1311 8.13113 34 8.29289 34C8.55383 34 8.68451 33.6845 8.5 33.5L8 33C7.63098 32.631 7.59325 31.3569 7.83709 30.8955Z" fill="white"/>
<path d="M10.1629 30.8955C9.59674 29.8242 9 28.3154 9 28C9 27.5 11 30.5 13 30.5C15 30.5 14.65 28 15 28H16C16.35 28 17 28.5 17 29V30C17 31 16 32 15 32L14.6369 32C14.2464 32 14 32.3166 14 32.7071C14 32.8946 13.9255 33.0745 13.7929 33.2071L13.2071 33.7929C13.0745 33.9255 13 34.1054 13 34.2929V34.5C13 34.7761 12.7761 35 12.5 35C12.2239 35 12 34.7761 12 34.5C12 34.2239 11.7761 34 11.5 34C11.2239 34 11 34.2239 11 34.5C11 34.7761 10.7761 35 10.5 35C10.2239 35 10 34.7761 10 34.5V34.2929C10 34.1311 9.86887 34 9.70711 34C9.44617 34 9.31549 33.6845 9.5 33.5L10 33C10.369 32.631 10.4068 31.3569 10.1629 30.8955Z" fill="white"/>
<path d="M12.5 27C12.7761 27 13 27.2239 13 27.5C13 27.7761 12.7761 28 12.5 28C12.2239 28 12 27.7761 12 27.5C12 27.2239 12.2239 27 12.5 27Z" fill="white"/>
<path d="M5.5 27C5.77614 27 6 27.2239 6 27.5C6 27.7761 5.77614 28 5.5 28C5.22386 28 5 27.7761 5 27.5C5 27.2239 5.22386 27 5.5 27Z" fill="white"/>
<g clip-path="url(#clip11_6_362)">
<rect x="38" y="19" width="18" height="18" rx="3" fill="white"/>
<path d="M45.8474 27.7875C45.9553 27.8255 46.0714 27.8461 46.1923 27.8461C46.7658 27.8461 47.2308 27.3812 47.2308 26.8077C47.2308 26.6868 47.2101 26.5707 47.1721 26.4628C47.1916 26.462 47.2111 26.4616 47.2308 26.4616C47.9955 26.4616 48.6154 27.0815 48.6154 27.8462C48.6154 28.6109 47.9955 29.2308 47.2308 29.2308C46.4661 29.2308 45.8462 28.6109 45.8462 27.8462C45.8462 27.8265 45.8466 27.807 45.8474 27.7875Z" fill="#151515"/>
<path fill-rule="evenodd" clip-rule="evenodd" d="M47.2308 30.6154C48.7602 30.6154 50 29.3755 50 27.8461C50 26.3167 48.7602 25.0769 47.2308 25.0769C45.7014 25.0769 44.4615 26.3167 44.4615 27.8461C44.4615 29.3755 45.7014 30.6154 47.2308 30.6154ZM49.3077 27.8461C49.3077 28.9932 48.3778 29.9231 47.2307 29.9231C46.0837 29.9231 45.1538 28.9932 45.1538 27.8461C45.1538 27.6333 45.1858 27.4279 45.2453 27.2346C45.1865 27.1043 45.1538 26.9598 45.1538 26.8077C45.1538 26.2342 45.6188 25.7692 46.1923 25.7692C46.3444 25.7692 46.4889 25.8019 46.6192 25.8607C46.8125 25.8012 47.0179 25.7692 47.2307 25.7692C48.3778 25.7692 49.3077 26.6991 49.3077 27.8461Z" fill="#151515"/>
<path fill-rule="evenodd" clip-rule="evenodd" d="M47.2308 23C43.7692 23 41 25.7692 41 28.5385C41 29.9231 44.4615 32 47.2308 32C50 32 53.4615 29.9231 53.4615 28.5385C53.4615 25.7692 50.6923 23 47.2308 23ZM47.0521 24.0385C43.8363 24.0385 41.6923 26.4717 41.6923 28.5385C42.407 29.9231 45.1539 31.3077 47.2308 31.3077C49.3077 31.3077 52.0546 29.9231 52.7693 28.5385C52.7693 26.4615 50.268 24.0385 47.0521 24.0385Z" fill="#151515"/>
<path fill-rule="evenodd" clip-rule="evenodd" d="M54 19C55 19 56 20 56 21V35C56 36 55 37 54 37H40C39 37 38 36 38 35V21C38 20 39 19 40 19H54ZM47 32.5C50.866 32.5 53.5 31.0376 53.5 28C53.5 24.9624 50.866 22 47 22C43.134 22 41 24.9624 41 28C41 31.0376 43.134 32.5 47 32.5Z" fill="#151515"/>
</g>
<g clip-path="url(#clip12_6_362)">
<rect x="57" y="19" width="18" height="18" rx="3" fill="white"/>
<path d="M67.6526 27.7875C67.5447 27.8255 67.4286 27.8461 67.3077 27.8461C66.7342 27.8461 66.2692 27.3812 66.2692 26.8077C66.2692 26.6868 66.2899 26.5707 66.3279 26.4628C66.3084 26.462 66.2889 26.4616 66.2692 26.4616C65.5045 26.4616 64.8846 27.0815 64.8846 27.8462C64.8846 28.6109 65.5045 29.2308 66.2692 29.2308C67.0339 29.2308 67.6538 28.6109 67.6538 27.8462C67.6538 27.8265 67.6534 27.807 67.6526 27.7875Z" fill="#151515"/>
<path fill-rule="evenodd" clip-rule="evenodd" d="M66.2692 30.6154C64.7398 30.6154 63.5 29.3755 63.5 27.8461C63.5 26.3167 64.7398 25.0769 66.2692 25.0769C67.7986 25.0769 69.0385 26.3167 69.0385 27.8461C69.0385 29.3755 67.7986 30.6154 66.2692 30.6154ZM64.1923 27.8461C64.1923 28.9932 65.1222 29.9231 66.2693 29.9231C67.4163 29.9231 68.3462 28.9932 68.3462 27.8461C68.3462 27.6333 68.3142 27.4279 68.2547 27.2346C68.3135 27.1043 68.3462 26.9598 68.3462 26.8077C68.3462 26.2342 67.8812 25.7692 67.3077 25.7692C67.1556 25.7692 67.0111 25.8019 66.8808 25.8607C66.6875 25.8012 66.4821 25.7692 66.2693 25.7692C65.1222 25.7692 64.1923 26.6991 64.1923 27.8461Z" fill="#151515"/>
<path fill-rule="evenodd" clip-rule="evenodd" d="M66.2692 23C69.7308 23 72.5 25.7692 72.5 28.5385C72.5 29.9231 69.0385 32 66.2692 32C63.5 32 60.0385 29.9231 60.0385 28.5385C60.0385 25.7692 62.8077 23 66.2692 23ZM66.4479 24.0385C69.6637 24.0385 71.8077 26.4717 71.8077 28.5385C71.093 29.9231 68.3461 31.3077 66.2692 31.3077C64.1923 31.3077 61.4454 29.9231 60.7307 28.5385C60.7307 26.4615 63.232 24.0385 66.4479 24.0385Z" fill="#151515"/>
<path fill-rule="evenodd" clip-rule="evenodd" d="M73 19C74 19 75 20 75 21V35C75 36 74 37 73 37H59C58 37 57 36 57 35V21C57 20 58 19 59 19H73ZM66.5 32.5C62.634 32.5 60 31.0376 60 28C60 24.9624 62.634 22 66.5 22C70.366 22 72.5 24.9624 72.5 28C72.5 31.0376 70.366 32.5 66.5 32.5Z" fill="#151515"/>
</g>
<path d="M73 38C74 38 75 39 75 40V54C75 55 74 56 73 56H59C58 56 57 55 57 54V40C57 39 58 38 59 38H73Z" fill="#151515"/>
<path d="M69.0018 41.5H60.9976C59.6174 41.5 58.5 42.6188 58.5 44V50C58.5 51.4004 59.6153 52.4233 60.8866 52.1928C64.433 51.5499 69.8481 49.6214 71.1882 43.8653C71.4718 42.6473 70.4266 41.5 69.0018 41.5Z" fill="white" stroke="#151515"/>
<path d="M69 42H69.0002C69.0145 42 69.7275 42 69.9988 42C70.119 42 70.1524 42 70 42C69.9996 42 69.9992 42 69.9988 42C69.4992 42.0008 69 42.5004 69 43V47.794C69 47.9266 68.9473 48.0527 68.8535 48.1464C68.5386 48.4614 68 48.24 68 47.7945V43C68 42.5 67.5 42 67 42C66.5035 42 67.9792 42 67.9998 42H68H68H69H69Z" fill="#151515"/>
<path d="M64 43V50.6938C64 51.0655 64.3912 51.3044 64.7236 51.1382C64.893 51.0535 65 50.882 65 50.6926V43C65 42.5 65.5 42 66 42H63C63.5 42 64 42.5 64 43Z" fill="#151515"/>
<path d="M54 38C55 38 56 39 56 40V54C56 55 55 56 54 56H40C39 56 38 55 38 54V40C38 39 39 38 40 38H54Z" fill="#151515"/>
<path d="M43.9982 41.5H52.0024C53.3826 41.5 54.5 42.6188 54.5 44V50C54.5 51.4004 53.3847 52.4233 52.1134 52.1928C48.567 51.5499 43.1519 49.6214 41.8118 43.8653C41.5282 42.6473 42.5734 41.5 43.9982 41.5Z" fill="white" stroke="#151515"/>
<path d="M43 42H44H45H46C45.5 42 45 42.5 45 43V47.7945C45 48.24 44.4614 48.4614 44.1465 48.1464C44.0527 48.0527 44 47.9266 44 47.794V43C44 42.5 43.5 42 43 42Z" fill="#151515"/>
<path d="M49 42H50C49.5 42 49 42.5 49 43V50.6938C49 51.0655 48.6089 51.3044 48.2764 51.1382C48.107 51.0535 48 50.882 48 50.6926V43C48 42.5 47.5 42 47 42H48H49Z" fill="#151515"/>
<defs>
<clipPath id="clip0_6_362">
<rect x="19.2222" width="18" height="18" rx="3" fill="white"/>
</clipPath>
<clipPath id="clip1_6_362">
<rect x="0.222168" width="18" height="18" rx="3" fill="white"/>
</clipPath>
<clipPath id="clip2_6_362">
<rect x="39.2222" width="17.0002" height="18" rx="3" fill="white"/>
</clipPath>
<clipPath id="clip3_6_362">
<rect x="57.2222" width="18" height="18" rx="3" fill="white"/>
</clipPath>
<clipPath id="clip4_6_362">
<rect y="38" width="18" height="18" rx="3" fill="white"/>
</clipPath>
<clipPath id="clip5_6_362">
<rect x="19" y="38" width="18" height="18" rx="3" fill="white"/>
</clipPath>
<clipPath id="clip6_6_362">
<rect x="57" y="57" width="18" height="18" rx="3" fill="white"/>
</clipPath>
<clipPath id="clip7_6_362">
<rect x="38" y="57" width="18" height="18" rx="3" fill="white"/>
</clipPath>
<clipPath id="clip8_6_362">
<rect x="19.0001" y="57" width="18" height="18" rx="3" fill="white"/>
</clipPath>
<clipPath id="clip9_6_362">
<rect y="57" width="18.0001" height="18" rx="3" fill="white"/>
</clipPath>
<clipPath id="clip10_6_362">
<rect x="19.0001" y="19" width="18" height="18" rx="3" fill="white"/>
</clipPath>
<clipPath id="clip11_6_362">
<rect x="38" y="19" width="18" height="18" rx="3" fill="white"/>
</clipPath>
<clipPath id="clip12_6_362">
<rect x="57" y="19" width="18" height="18" rx="3" fill="white"/>
</clipPath>
</defs>
</svg>
