<svg width="76" height="75" fill="none" xmlns="http://www.w3.org/2000/svg"><g clip-path="url(#a)"><rect x="19.222" width="18" height="18" rx="3" fill="#fff"/><path d="M37.222 16V2c0-1-1-2-2-2h-14c-1 0-2 1-2 2v14c0 1 1 2 2 2h14c1 0 2-1 2-2Z" fill="#151515"/><path d="M29.936 10c.429 0 4.286 1.5 4.286 2 0 0-3 2-6 2s-6-2-6-2c0-.5 3.857-2 4.286-2 .428 0 1.286 1 1.714 1 .429 0 1.286-1 1.714-1Z" fill="#fff"/></g><g clip-path="url(#b)"><rect x=".222" width="18" height="18" rx="3" fill="#fff"/><path d="M18.222 16V2c0-1-1-2-2-2h-14c-1 0-2 1-2 2v14c0 1 1 2 2 2h14c1 0 2-1 2-2Z" fill="#151515"/><path d="M11.222 10c-.5.5-1.5 1-2 1s-1.5-.5-2-1 0-1 0-1 1-1.5 1-2V3h2v4c0 .5 1 2 1 2s.5.5 0 1Zm0 2c.429 0 4 .5 4 1s-3 1-6 1-6-.5-6-1 3.572-1 4-1h4Z" fill="#fff"/></g><g clip-path="url(#c)"><rect x="39.222" width="17" height="18" rx="3" fill="#fff"/><path fill-rule="evenodd" clip-rule="evenodd" d="M50.121 18c.531-.647 1.101-1.466 1.101-2 0-1-1-2-1-2s-10-1.5-7-3 5-3 5-3l-1-2 2-1-4-3-1.333-2h10.333c1 0 2 1 2 2v14c0 1-1 2-2 2h-4.101Z" fill="#151515"/><path d="M52.222 4.5c.338 0 .624-.086.856-.24.228-.153.374-.352.466-.536.029-.057.052-.112.072-.166a1.77 1.77 0 0 1-.091.218 1.24 1.24 0 0 1-.424.495c-.19.127-.466.229-.879.229Zm0 0c-.337 0-.624-.086-.855-.24a1.377 1.377 0 0 1-.467-.536 1.626 1.626 0 0 1-.071-.166c.024.072.054.146.09.218.096.191.23.367.424.495.19.127.467.229.88.229Z" fill="#fff" stroke="#fff"/><path d="M40.222 3s0 2 2 2 2-2 2-2h-1s0 1-1 1-1-1-1-1h-1Z" fill="#151515"/></g><g clip-path="url(#d)"><rect x="57.222" width="18" height="18" rx="3" fill="#fff"/><path fill-rule="evenodd" clip-rule="evenodd" d="M75.222 16V2c0-1-1-2-2-2h-14c-1 0-2 1-2 2v14c0 1 1 2 2 2h14c1 0 2-1 2-2Zm-6 0c0 1-1 1-1 1h-9c-.5 0-1-.5-1-1V2c0-.5.5-1 1-1h5l4 4-2 1 1 2s-2 1.5-5 3 6 3 6 3 1 1 1 2Zm2-11c-2 0-2-2-2-2h1s0 1 1 1 1-1 1-1h1s0 2-2 2Z" fill="#151515"/><path d="M59.222 3s0 2 2 2 2-2 2-2h-1s0 1-1 1-1-1-1-1h-1Z" fill="#151515"/></g><g clip-path="url(#e)"><rect y="38" width="18" height="18" rx="3" fill="#fff"/><path fill-rule="evenodd" clip-rule="evenodd" d="M18 54c0 1-1 2-2 2H2c-1 0-2-1-2-2V40c0-1 1-2 2-2h14c1 0 2 1 2 2v14Zm-7-2s-9-1.5-6-3 5-3 5-3l-1-2 2-1-4-4H2c-.5 0-1 .5-1 1v14c0 .5.5 1 1 1h9v-3Zm5-7-4 1v1l4-1v-1Zm-4 3h4v1h-4v-1Zm4 3-4-1v1l4 1v-1ZM4 44c-2 0-2-2-2-2h1s0 1 1 1 1-1 1-1h1s0 2-2 2Z" fill="#151515"/></g><g clip-path="url(#f)"><rect x="19" y="38" width="18" height="18" rx="3" fill="#fff"/><path d="M26 44c-2 0-2-2-2-2h1s0 1 1 1 1-1 1-1h1s0 2-2 2Z" fill="#151515"/><path fill-rule="evenodd" clip-rule="evenodd" d="M37 40c0-1-1-2-2-2H21c-1 0-2 1-2 2v14c0 1 1 2 2 2h14c1 0 2-1 2-2V40ZM20 50.666V54c0 .5.5 1 1 1h10v-2s-7-2.5-4-4 5-3 5-3l-1-2 2-1-4-4h-8c-.5 0-1 .5-1 1v2.142c1.333.408 2 1.633 2 2.858 0 1.5-.5 3-2 3 0 0 1 2.5 2 3s5 1 5 1v1s-5-.5-6-1c-.347-.174-.695-.71-1-1.334ZM35 47l-3 1v1l3-1v-1Zm-3 3h3v1h-3v-1Zm3 3-3-1v1l3 1v-1Z" fill="#151515"/></g><g clip-path="url(#g)"><rect x="57" y="57" width="18" height="18" rx="3" fill="#fff"/><path fill-rule="evenodd" clip-rule="evenodd" d="M73 57c1 0 2 1 2 2v14c0 1-1 2-2 2H59c-1 0-2-1-2-2V59c0-1 1-2 2-2h14Zm-7 14s-8-3-5-3 5-1 5-1v-2h1s-2-3-2-5v-2h-6c-.5 0-1 .5-1 1v14c0 .5.5 1 1 1h6c.5 0 1-.5 1-1v-2Zm-6-10s0 2 2 2 2-2 2-2h-1s0 1-1 1-1-1-1-1h-1Zm11 5c2 0 3 1 3 3s-1 3-3 3c-3 0-6-3-6-3s3-3 6-3Z" fill="#151515"/></g><g clip-path="url(#h)"><rect x="38" y="57" width="18" height="18" rx="3" fill="#fff"/><path fill-rule="evenodd" clip-rule="evenodd" d="M54 75c1 0 2-1 2-2V59c0-1-1-2-2-2H40c-1 0-2 1-2 2v14c0 1 1 2 2 2h14Zm-10-8c0 4 6 4 6 4v2c0 .5-.5 1-1 1h-9c-.5 0-1-.5-1-1V59c0-.5.5-1 1-1h10v2c0 2 2 5 2 5h-2v2h-6Zm3-1c-2 0-2-2-2-2h1s0 1 1 1 1-1 1-1h1s0 2-2 2Z" fill="#151515"/></g><g clip-path="url(#i)"><rect x="19" y="57" width="18" height="18" rx="3" fill="#fff"/><path d="M37 73V59c0-1-1-2-2-2H21c-1 0-2 1-2 2v14c0 1 1 2 2 2h14c1 0 2-1 2-2Z" fill="#151515"/><path d="m32.5 64 1 2-7.5 1.5 2.5-7 2 1 1-1-1-1.5 1.5-1 4.5 5-1.5 1-1-1-1.5 1Z" fill="#fff"/></g><g clip-path="url(#j)"><rect y="57" width="18" height="18" rx="3" fill="#fff"/><path d="M17.5 59v14c0 .337-.174.717-.478 1.021-.305.305-.684.479-1.022.479H2c-.337 0-.716-.174-1.021-.479C.674 73.717.5 73.337.5 73V59c0-.337.174-.717.479-1.021.305-.305.684-.479 1.021-.479h14c.337 0 .717.174 1.022.479.304.304.478.684.478 1.021Z" stroke="#151515"/><path fill-rule="evenodd" clip-rule="evenodd" d="M13 60v-2H6v2h1s1 2-1 4c1.64 0 2.942 4.365 3.36 5.94C9.151 68.323 9 63.728 9 63.5a.5.5 0 0 1 1 0c0 .227-.152 4.822-.36 6.44C10.059 68.366 11.362 64 13 64c-2-2-1-4-1-4h1Z" fill="#151515"/><path d="m9 72 .5-2 .5 2c.5 2 4-6 8-6v7l-2 2H2l-2-2v-7c5 0 8.5 8 9 6Z" fill="#151515"/></g><g clip-path="url(#k)"><rect x="19" y="19" width="18" height="18" rx="3" fill="#fff"/><mask id="l" style="mask-type:alpha" maskUnits="userSpaceOnUse" x="19" y="19" width="19" height="18"><path d="M36.5 21v14c0 .337-.174.717-.478 1.021-.305.305-.684.479-1.022.479H21c-.337 0-.716-.174-1.021-.479-.305-.304-.479-.684-.479-1.021V21c0-.337.174-.717.479-1.021.305-.305.684-.479 1.021-.479h14c.337 0 .717.174 1.022.479.304.304.478.684.478 1.021Z" fill="#D9D9D9" stroke="#151515"/></mask><g mask="url(#l)" fill="#151515"><path fill-rule="evenodd" clip-rule="evenodd" d="m38.622 22.873 1.296-2.336L31.738 16l-1.296 2.337 1.169.648s-.128 2.985-3.76 4.026c1.914 1.062.608 7.006.074 9.118.807-2.026 3.607-7.493 3.755-7.758a.668.668 0 1 1 1.168.648c-.147.265-3.302 5.535-4.594 7.293 1.509-1.571 5.86-5.827 7.775-4.765-1.04-3.633 1.424-5.322 1.424-5.322l1.169.648Z"/><path d="M27.667 34c2 0 0-2 0-2s1.5 1 2 2 .5 2-2 2c-4-1-4-5-10-2s0-8 0-9c5 0 8 9 10 9Z"/></g></g><path d="M18 35V21c0-1-1-2-2-2H2c-1 0-2 1-2 2v14c0 1 1 2 2 2h14c1 0 2-1 2-2Z" fill="#151515"/><path d="M15 25c-.5.5-11.5.5-12 0s1-.5 1-1c0-.375-2-1.75-2-2 0-.5.5-1 1-1h12c.5 0 1 .5 1 1 0 .25-2 1.625-2 2 0 .5 1.5.5 1 1Zm-7.163 5.895C8.403 29.825 9 28.316 9 28c0-.5-2 2.5-4 2.5S3.35 28 3 28H2c-.35 0-1 .5-1 1v1c0 1 1 2 2 2h.363c.39 0 .637.317.637.707 0 .188.074.367.207.5l.586.586a.707.707 0 0 1 .207.5v.207a.5.5 0 0 0 1 0 .5.5 0 0 1 1 0 .5.5 0 0 0 1 0v-.207c0-.162.131-.293.293-.293.26 0 .392-.316.207-.5L8 33c-.369-.369-.407-1.643-.163-2.105Zm2.326 0C9.597 29.825 9 28.316 9 28c0-.5 2 2.5 4 2.5s1.65-2.5 2-2.5h1c.35 0 1 .5 1 1v1c0 1-1 2-2 2h-.363c-.39 0-.637.317-.637.707a.707.707 0 0 1-.207.5l-.586.586a.707.707 0 0 0-.207.5v.207a.5.5 0 0 1-1 0 .5.5 0 0 0-1 0 .5.5 0 0 1-1 0v-.207A.293.293 0 0 0 9.707 34a.293.293 0 0 1-.207-.5l.5-.5c.369-.369.407-1.643.163-2.105Z" fill="#fff"/><path d="M12.5 27a.5.5 0 1 1 0 1 .5.5 0 0 1 0-1Zm-7 0a.5.5 0 1 1 0 1 .5.5 0 0 1 0-1Z" fill="#fff"/><g clip-path="url(#m)"><rect x="38" y="19" width="18" height="18" rx="3" fill="#fff"/><path d="M45.847 27.788a1.038 1.038 0 0 0 1.325-1.325l.059-.001a1.385 1.385 0 1 1-1.384 1.326Z" fill="#151515"/><path fill-rule="evenodd" clip-rule="evenodd" d="M47.23 30.615a2.77 2.77 0 1 0 0-5.538 2.77 2.77 0 0 0 0 5.538Zm2.078-2.769a2.077 2.077 0 1 1-4.063-.611 1.039 1.039 0 0 1 1.374-1.374 2.077 2.077 0 0 1 2.688 1.985Z" fill="#151515"/><path fill-rule="evenodd" clip-rule="evenodd" d="M47.23 23C43.77 23 41 25.77 41 28.538 41 29.924 44.462 32 47.23 32c2.77 0 6.232-2.077 6.232-3.462 0-2.769-2.77-5.538-6.231-5.538Zm-.178 1.038c-3.216 0-5.36 2.434-5.36 4.5.715 1.385 3.462 2.77 5.539 2.77 2.077 0 4.824-1.385 5.538-2.77 0-2.076-2.501-4.5-5.717-4.5Z" fill="#151515"/><path fill-rule="evenodd" clip-rule="evenodd" d="M54 19c1 0 2 1 2 2v14c0 1-1 2-2 2H40c-1 0-2-1-2-2V21c0-1 1-2 2-2h14Zm-7 13.5c3.866 0 6.5-1.462 6.5-4.5 0-3.038-2.634-6-6.5-6s-6 2.962-6 6 2.134 4.5 6 4.5Z" fill="#151515"/></g><g clip-path="url(#n)"><rect x="57" y="19" width="18" height="18" rx="3" fill="#fff"/><path d="M67.653 27.788a1.038 1.038 0 0 1-1.325-1.325 1.385 1.385 0 1 0 1.325 1.325Z" fill="#151515"/><path fill-rule="evenodd" clip-rule="evenodd" d="M66.27 30.615a2.77 2.77 0 1 1 0-5.538 2.77 2.77 0 0 1 0 5.538Zm-2.078-2.769a2.077 2.077 0 1 0 4.063-.611 1.039 1.039 0 0 0-1.374-1.374 2.077 2.077 0 0 0-2.688 1.985Z" fill="#151515"/><path fill-rule="evenodd" clip-rule="evenodd" d="M66.27 23c3.46 0 6.23 2.77 6.23 5.538 0 1.385-3.462 3.462-6.23 3.462-2.77 0-6.231-2.077-6.231-3.462 0-2.769 2.769-5.538 6.23-5.538Zm.178 1.038c3.216 0 5.36 2.434 5.36 4.5-.715 1.385-3.462 2.77-5.539 2.77-2.077 0-4.824-1.385-5.538-2.77 0-2.076 2.501-4.5 5.717-4.5Z" fill="#151515"/><path fill-rule="evenodd" clip-rule="evenodd" d="M73 19c1 0 2 1 2 2v14c0 1-1 2-2 2H59c-1 0-2-1-2-2V21c0-1 1-2 2-2h14Zm-6.5 13.5c-3.866 0-6.5-1.462-6.5-4.5 0-3.038 2.634-6 6.5-6s6 2.962 6 6-2.134 4.5-6 4.5Z" fill="#151515"/></g><path d="M73 38c1 0 2 1 2 2v14c0 1-1 2-2 2H59c-1 0-2-1-2-2V40c0-1 1-2 2-2h14Z" fill="#151515"/><path d="M69.002 41.5h-8.004A2.498 2.498 0 0 0 58.5 44v6c0 1.4 1.115 2.423 2.387 2.193 3.546-.643 8.961-2.572 10.301-8.328.284-1.218-.761-2.365-2.186-2.365Z" fill="#fff" stroke="#151515"/><path d="M69 42h1-.001c-.5 0-.999.5-.999 1v4.794a.5.5 0 0 1-1 0V43c0-.5-.5-1-1-1h2Zm-5 1v7.694c0 .371.391.61.724.444a.498.498 0 0 0 .276-.445V43c0-.5.5-1 1-1h-3c.5 0 1 .5 1 1Zm-10-5c1 0 2 1 2 2v14c0 1-1 2-2 2H40c-1 0-2-1-2-2V40c0-1 1-2 2-2h14Z" fill="#151515"/><path d="M43.998 41.5h8.004A2.498 2.498 0 0 1 54.5 44v6c0 1.4-1.115 2.423-2.387 2.193-3.546-.643-8.961-2.572-10.301-8.328-.284-1.218.761-2.365 2.186-2.365Z" fill="#fff" stroke="#151515"/><path d="M43 42h3c-.5 0-1 .5-1 1v4.794a.5.5 0 0 1-1 0V43c0-.5-.5-1-1-1Zm6 0h1c-.5 0-1 .5-1 1v7.694c0 .371-.391.61-.724.444a.498.498 0 0 1-.276-.445V43c0-.5-.5-1-1-1h2Z" fill="#151515"/><defs><clipPath id="a"><rect x="19.222" width="18" height="18" rx="3" fill="#fff"/></clipPath><clipPath id="b"><rect x=".222" width="18" height="18" rx="3" fill="#fff"/></clipPath><clipPath id="c"><rect x="39.222" width="17" height="18" rx="3" fill="#fff"/></clipPath><clipPath id="d"><rect x="57.222" width="18" height="18" rx="3" fill="#fff"/></clipPath><clipPath id="e"><rect y="38" width="18" height="18" rx="3" fill="#fff"/></clipPath><clipPath id="f"><rect x="19" y="38" width="18" height="18" rx="3" fill="#fff"/></clipPath><clipPath id="g"><rect x="57" y="57" width="18" height="18" rx="3" fill="#fff"/></clipPath><clipPath id="h"><rect x="38" y="57" width="18" height="18" rx="3" fill="#fff"/></clipPath><clipPath id="i"><rect x="19" y="57" width="18" height="18" rx="3" fill="#fff"/></clipPath><clipPath id="j"><rect y="57" width="18" height="18" rx="3" fill="#fff"/></clipPath><clipPath id="k"><rect x="19" y="19" width="18" height="18" rx="3" fill="#fff"/></clipPath><clipPath id="m"><rect x="38" y="19" width="18" height="18" rx="3" fill="#fff"/></clipPath><clipPath id="n"><rect x="57" y="19" width="18" height="18" rx="3" fill="#fff"/></clipPath></defs></svg>