<svg width="30" height="30" viewBox="0 0 30 30" fill="none" xmlns="http://www.w3.org/2000/svg">
<g filter="url(#filter0_d_1_74)">
<path fill-rule="evenodd" clip-rule="evenodd" d="M23.3564 15.2631L8.9282 6.27277L9.5 23.2631L13.6415 18.4364L16.6962 23.7272L20.1603 21.7272L17.1056 16.4364L23.3564 15.2631Z" fill="url(#paint0_linear_1_74)"/>
</g>
<path fill-rule="evenodd" clip-rule="evenodd" d="M23.3564 15.2631L8.9282 6.27277L9.5 23.2631L13.6415 18.4364L16.6962 23.7272L20.1603 21.7272L17.1056 16.4364L23.3564 15.2631ZM18.7942 21.3612L15.5338 15.7139L20.6483 14.754L9.9907 8.11307L10.4131 20.6633L13.8017 16.7139L17.0622 22.3612L18.7942 21.3612Z" fill="black"/>
<g filter="url(#filter1_d_1_74)">
<path d="M25.8091 17.9124H24.1909V17.064C24.1909 16.6931 24.2339 16.4196 24.3198 16.2434C24.4153 16.058 24.6158 15.8169 24.9212 15.5202L25.9666 14.5049C26.1862 14.2731 26.2959 13.9856 26.2959 13.6426C26.2959 13.2995 26.1814 13.0167 25.9523 12.7942C25.7232 12.5624 25.4272 12.4465 25.0644 12.4465C24.7017 12.4465 24.3962 12.5577 24.148 12.7803C23.9093 12.9935 23.7709 13.2809 23.7327 13.6426H22C22.0955 12.8173 22.4248 12.1729 22.9881 11.7093C23.5609 11.2364 24.2721 11 25.1217 11C25.9714 11 26.6635 11.2272 27.1981 11.6815C27.7327 12.1266 28 12.7524 28 13.5591C28 14.1154 27.8425 14.579 27.5274 14.9499C27.3461 15.1725 27.2076 15.3301 27.1122 15.4228C27.0167 15.5155 26.8878 15.6361 26.7255 15.7844C26.5728 15.9235 26.4391 16.0487 26.3246 16.1599C26.2196 16.2619 26.1337 16.35 26.0668 16.4242C25.895 16.6282 25.8091 16.9156 25.8091 17.2865V17.9124ZM25.0215 21C24.7255 21 24.4678 20.9026 24.2482 20.7079C24.0286 20.5039 23.9189 20.2629 23.9189 19.9847C23.9189 19.6973 24.0239 19.4516 24.2339 19.2476C24.4535 19.0436 24.7112 18.9416 25.0072 18.9416C25.3126 18.9416 25.5752 19.0436 25.7947 19.2476C26.0143 19.4423 26.1241 19.6834 26.1241 19.9708C26.1241 20.249 26.0143 20.49 25.7947 20.694C25.5847 20.898 25.327 21 25.0215 21Z" fill="black"/>
<path d="M25.0068 19.1914C25.2506 19.1914 25.4527 19.2706 25.625 19.4307L25.6289 19.4346C25.7962 19.583 25.874 19.7565 25.874 19.9707C25.874 20.1735 25.7979 20.35 25.625 20.5107L25.6201 20.5146C25.459 20.671 25.265 20.75 25.0215 20.75C24.7861 20.75 24.5875 20.6743 24.4141 20.5205C24.2441 20.3608 24.1689 20.1855 24.1689 19.9844C24.169 19.7678 24.2444 19.5876 24.4043 19.4307C24.5782 19.2692 24.7751 19.1915 25.0068 19.1914ZM25.1221 11.25C25.9253 11.2501 26.5558 11.4639 27.0361 11.8721L27.0381 11.874C27.5061 12.2637 27.75 12.814 27.75 13.5596C27.7499 14.0654 27.608 14.4689 27.3369 14.7881L27.334 14.792C27.1537 15.0132 27.0228 15.1612 26.9385 15.2432C26.8456 15.3334 26.7181 15.452 26.5566 15.5996C26.4026 15.7399 26.2672 15.867 26.1504 15.9805L25.8809 16.2568L25.876 16.2627C25.6537 16.5265 25.5587 16.8793 25.5586 17.2861V17.6621H24.4414V17.0645C24.4414 16.794 24.4654 16.5986 24.5029 16.4658L24.5449 16.3525C24.6223 16.2052 24.7974 15.989 25.0957 15.6992L26.1406 14.6846L26.1484 14.6768C26.4153 14.3949 26.5459 14.0443 26.5459 13.6426C26.5459 13.2389 26.4084 12.8911 26.1289 12.6182H26.1299C25.8483 12.3334 25.4856 12.1963 25.0645 12.1963C24.6462 12.1963 24.2797 12.3266 23.9814 12.5938C23.7443 12.8056 23.5943 13.076 23.5225 13.3926H22.292C22.4165 12.7588 22.7033 12.2672 23.1465 11.9023H23.1475C23.6691 11.4717 24.3217 11.25 25.1221 11.25Z" stroke="black" stroke-width="0.5"/>
</g>
<defs>
<filter id="filter0_d_1_74" x="7.92822" y="6.27277" width="16.4282" height="19.4545" filterUnits="userSpaceOnUse" color-interpolation-filters="sRGB">
<feFlood flood-opacity="0" result="BackgroundImageFix"/>
<feColorMatrix in="SourceAlpha" type="matrix" values="0 0 0 0 0 0 0 0 0 0 0 0 0 0 0 0 0 0 127 0" result="hardAlpha"/>
<feOffset dy="1"/>
<feGaussianBlur stdDeviation="0.5"/>
<feComposite in2="hardAlpha" operator="out"/>
<feColorMatrix type="matrix" values="0 0 0 0 0 0 0 0 0 0 0 0 0 0 0 0 0 0 0.1 0"/>
<feBlend mode="normal" in2="BackgroundImageFix" result="effect1_dropShadow_1_74"/>
<feBlend mode="normal" in="SourceGraphic" in2="effect1_dropShadow_1_74" result="shape"/>
</filter>
<filter id="filter1_d_1_74" x="21" y="11" width="8" height="12" filterUnits="userSpaceOnUse" color-interpolation-filters="sRGB">
<feFlood flood-opacity="0" result="BackgroundImageFix"/>
<feColorMatrix in="SourceAlpha" type="matrix" values="0 0 0 0 0 0 0 0 0 0 0 0 0 0 0 0 0 0 127 0" result="hardAlpha"/>
<feOffset dy="1"/>
<feGaussianBlur stdDeviation="0.5"/>
<feComposite in2="hardAlpha" operator="out"/>
<feColorMatrix type="matrix" values="0 0 0 0 0 0 0 0 0 0 0 0 0 0 0 0 0 0 0.1 0"/>
<feBlend mode="normal" in2="BackgroundImageFix" result="effect1_dropShadow_1_74"/>
<feBlend mode="normal" in="SourceGraphic" in2="effect1_dropShadow_1_74" result="shape"/>
</filter>
<linearGradient id="paint0_linear_1_74" x1="8.9282" y1="6.27277" x2="18.4282" y2="22.7272" gradientUnits="userSpaceOnUse">
<stop offset="0.353422" stop-color="white"/>
<stop offset="1" stop-color="#E7E7E7"/>
</linearGradient>
</defs>
</svg>
