<svg width="30" height="30" viewBox="0 0 30 30" fill="none" xmlns="http://www.w3.org/2000/svg">
<g filter="url(#filter0_d_1_73)">
<path fill-rule="evenodd" clip-rule="evenodd" d="M16.1409 11.9986C16.1401 11.447 15.6927 11 15.1409 11C14.5886 11 14.1409 11.4477 14.1409 12V13L14.1409 13.75C14.1409 13.8881 14.0289 14 13.8909 14C13.7528 14 13.6409 13.8881 13.6409 13.75V13H13.6408V8C13.6408 7.44772 13.1931 7 12.6408 7C12.0885 7 11.6408 7.44772 11.6408 8V13V15V16.2547L10.8748 14.8744C10.6068 14.3915 9.9981 14.2172 9.51519 14.4852C9.03228 14.7532 8.85806 15.3619 9.12604 15.8449L11.89 20.8254C12.183 21.3534 12.7222 21.6585 13.2849 21.6768C13.6921 21.8835 14.1529 22 14.6408 22H18.1408C19.7977 22 21.1408 20.6569 21.1408 19V15.0113L21.1409 15V13C21.1409 12.4477 20.6932 12 20.1409 12C19.5886 12 19.1409 12.4477 19.1409 13L19.1409 13.75C19.1409 13.8881 19.0289 14 18.8909 14C18.7528 14 18.6409 13.8881 18.6409 13.75L18.6409 13V12L18.6409 11.9986C18.6401 11.447 18.1927 11 17.6409 11C17.0886 11 16.6409 11.4477 16.6409 12V13L16.6409 13.75C16.6409 13.8881 16.5289 14 16.3909 14C16.2528 14 16.1409 13.8881 16.1409 13.75V11.9986Z" fill="url(#paint0_linear_1_73)"/>
</g>
<path fill-rule="evenodd" clip-rule="evenodd" d="M16.6408 12C16.6408 11.9995 16.6408 11.9991 16.6408 11.9986C16.6408 11.9984 16.6408 11.9988 16.6408 11.9986C16.6414 11.6951 16.7772 11.4227 16.9912 11.2397C17.166 11.0902 17.3928 11 17.6408 11C18.0968 11 18.4816 11.3053 18.6018 11.7226C18.6271 11.8103 18.6407 11.9029 18.6408 11.9986V13.75C18.6408 13.8881 18.7527 14 18.8908 14C19.0289 14 19.1408 13.8881 19.1408 13.75L19.1408 13C19.1408 12.6299 19.3419 12.3067 19.6408 12.1338C19.7879 12.0487 19.9587 12 20.1408 12C20.6931 12 21.1408 12.4477 21.1408 13V15L21.1407 15.0113V19C21.1407 20.6569 19.7976 22 18.1407 22H14.6407C14.1528 22 13.6921 21.8835 13.2849 21.6768C12.7222 21.6585 12.183 21.3534 11.8899 20.8254L9.12598 15.8449C8.85799 15.3619 9.03222 14.7532 9.51513 14.4852C9.88669 14.279 10.3327 14.3346 10.6407 14.5912C10.733 14.6681 10.813 14.763 10.8747 14.8744L11.6407 16.2547V8C11.6407 7.44772 12.0885 7 12.6407 7C13.193 7 13.6407 7.44772 13.6407 8V13L13.6408 13.75C13.6408 13.8881 13.7527 14 13.8908 14C14.0289 14 14.1408 13.8881 14.1408 13.75L14.1408 12C14.1408 11.6299 14.3419 11.3067 14.6407 11.1338C14.7878 11.0487 14.9586 11 15.1408 11C15.3888 11 15.6156 11.0902 15.7904 11.2397C16.0045 11.4228 16.1404 11.6948 16.1408 11.9986V13.75C16.1408 13.8881 16.2527 14 16.3908 14C16.5289 14 16.6408 13.8881 16.6408 13.75L16.6408 12ZM16.3908 10.4387C16.7332 10.1642 17.1678 10 17.6408 10C18.432 10 19.1159 10.4594 19.4403 11.1261C19.6583 11.0446 19.8943 11 20.1408 11C21.2454 11 22.1408 11.8954 22.1408 13V15.0056L22.1407 15.0141V19C22.1407 21.2091 20.3499 23 18.1407 23H14.6407C14.0663 23 13.5181 22.8783 13.0222 22.6588C12.2073 22.5608 11.4459 22.0862 11.0155 21.3106L8.2516 16.3301C7.71562 15.3643 8.06407 14.1468 9.02989 13.6109C9.54246 13.3264 10.1259 13.2911 10.6407 13.4649V8C10.6407 6.89543 11.5362 6 12.6407 6C13.7453 6 14.6407 6.89543 14.6407 8V10.063C14.8006 10.0219 14.9681 10 15.1408 10C15.6138 10 16.0484 10.1642 16.3908 10.4387Z" fill="black"/>
<defs>
<filter id="filter0_d_1_73" x="8.00024" y="7" width="14.1406" height="17" filterUnits="userSpaceOnUse" color-interpolation-filters="sRGB">
<feFlood flood-opacity="0" result="BackgroundImageFix"/>
<feColorMatrix in="SourceAlpha" type="matrix" values="0 0 0 0 0 0 0 0 0 0 0 0 0 0 0 0 0 0 127 0" result="hardAlpha"/>
<feOffset dy="1"/>
<feGaussianBlur stdDeviation="0.5"/>
<feComposite in2="hardAlpha" operator="out"/>
<feColorMatrix type="matrix" values="0 0 0 0 0 0 0 0 0 0 0 0 0 0 0 0 0 0 0.1 0"/>
<feBlend mode="normal" in2="BackgroundImageFix" result="effect1_dropShadow_1_73"/>
<feBlend mode="normal" in="SourceGraphic" in2="effect1_dropShadow_1_73" result="shape"/>
</filter>
<linearGradient id="paint0_linear_1_73" x1="15.0706" y1="7" x2="15.0706" y2="22" gradientUnits="userSpaceOnUse">
<stop offset="0.353422" stop-color="white"/>
<stop offset="1" stop-color="#E7E7E7"/>
</linearGradient>
</defs>
</svg>
