<svg width="316" height="218" viewBox="0 0 316 218" fill="none" xmlns="http://www.w3.org/2000/svg">
<rect width="316" height="218" fill="white"/>
<g filter="url(#filter0_d_1980_1913)">
<rect x="0.063161" y="0.377435" width="71" height="71" rx="11.5" transform="matrix(0.97437 0.224951 -0.848048 0.529919 213.322 72.1632)" fill="#C8C8C8" stroke="#C8C8C8"/>
</g>
<path d="M186.547 102.178L180.929 100.881L216.445 87.4412L222.943 88.9413L207.898 107.107L202.28 105.81L214.622 91.4579L214.395 91.4055L186.547 102.178ZM196.647 96.0251L211.968 99.5623L208.289 101.862L192.967 98.3243L196.647 96.0251ZM216.986 109.533C215.605 109.214 214.576 108.793 213.897 108.27C213.236 107.744 213.008 107.142 213.213 106.464C213.427 105.788 214.156 105.062 215.399 104.285C216.469 103.616 217.581 103.116 218.734 102.783C219.888 102.451 221.067 102.244 222.272 102.163C223.477 102.082 224.678 102.088 225.875 102.181C227.091 102.272 228.277 102.408 229.436 102.591C230.828 102.814 231.966 102.989 232.851 103.116C233.744 103.237 234.469 103.278 235.026 103.237C235.601 103.194 236.102 103.039 236.53 102.771L236.604 102.725C237.535 102.144 237.938 101.62 237.815 101.155C237.691 100.69 237.034 100.32 235.842 100.045C234.584 99.7543 233.348 99.6731 232.133 99.8011C230.927 99.9313 229.871 100.17 228.966 100.517L224.763 99.0401C226.294 98.4073 227.881 97.9497 229.525 97.667C231.177 97.3793 232.826 97.2597 234.471 97.3084C236.124 97.3519 237.711 97.5494 239.234 97.9009C240.284 98.1433 241.222 98.4514 242.048 98.8254C242.875 99.1993 243.471 99.6399 243.838 100.147C244.213 100.649 244.241 101.223 243.921 101.868C243.611 102.514 242.826 103.231 241.567 104.018L228.874 111.95L223.937 110.81L226.542 109.182L226.372 109.143C225.533 109.4 224.6 109.607 223.571 109.764C222.56 109.918 221.49 109.984 220.358 109.963C219.245 109.938 218.121 109.795 216.986 109.533ZM221.604 107.788C222.635 108.026 223.706 108.122 224.816 108.076C225.935 108.024 226.994 107.86 227.993 107.584C229.002 107.309 229.856 106.954 230.556 106.516L232.791 105.12C232.515 105.155 232.134 105.158 231.647 105.13C231.17 105.105 230.658 105.061 230.111 104.998C229.564 104.935 229.03 104.868 228.509 104.797C227.988 104.726 227.537 104.664 227.155 104.611C226.298 104.491 225.464 104.425 224.653 104.414C223.842 104.403 223.077 104.473 222.356 104.623C221.644 104.769 221 105.022 220.424 105.382C219.601 105.896 219.324 106.364 219.595 106.786C219.866 107.207 220.535 107.542 221.604 107.788Z" fill="#C8C8C8"/>
<rect width="49" height="2" transform="matrix(0.97437 0.224951 -0.848048 0.529919 176.227 104.15)" fill="#C8C8C8"/>
<g filter="url(#filter1_d_1980_1913)">
<rect x="0.063161" y="0.377435" width="71" height="71" rx="11.5" transform="matrix(0.97437 0.224951 -0.848048 0.529919 213.322 74.1632)" fill="#C8C8C8" stroke="#C8C8C8"/>
</g>
<path d="M186.547 104.178L180.929 102.881L216.445 89.4412L222.943 90.9413L207.898 109.107L202.28 107.81L214.622 93.4579L214.395 93.4055L186.547 104.178ZM196.647 98.0251L211.968 101.562L208.289 103.862L192.967 100.324L196.647 98.0251ZM216.986 111.533C215.605 111.214 214.576 110.793 213.897 110.27C213.236 109.744 213.008 109.142 213.213 108.464C213.427 107.788 214.156 107.062 215.399 106.285C216.469 105.616 217.581 105.116 218.734 104.783C219.888 104.451 221.067 104.244 222.272 104.163C223.477 104.082 224.678 104.088 225.875 104.181C227.091 104.272 228.277 104.408 229.436 104.591C230.828 104.814 231.966 104.989 232.851 105.116C233.744 105.237 234.469 105.278 235.026 105.237C235.601 105.194 236.102 105.039 236.53 104.771L236.604 104.725C237.535 104.144 237.938 103.62 237.815 103.155C237.691 102.69 237.034 102.32 235.842 102.045C234.584 101.754 233.348 101.673 232.133 101.801C230.927 101.931 229.871 102.17 228.966 102.517L224.763 101.04C226.294 100.407 227.881 99.9497 229.525 99.667C231.177 99.3793 232.826 99.2597 234.471 99.3084C236.124 99.3519 237.711 99.5494 239.234 99.9009C240.284 100.143 241.222 100.451 242.048 100.825C242.875 101.199 243.471 101.64 243.838 102.147C244.213 102.649 244.241 103.223 243.921 103.868C243.611 104.514 242.826 105.231 241.567 106.018L228.874 113.95L223.937 112.81L226.542 111.182L226.372 111.143C225.533 111.4 224.6 111.607 223.571 111.764C222.56 111.918 221.49 111.984 220.358 111.963C219.245 111.938 218.121 111.795 216.986 111.533ZM221.604 109.788C222.635 110.026 223.706 110.122 224.816 110.076C225.935 110.024 226.994 109.86 227.993 109.584C229.002 109.309 229.856 108.954 230.556 108.516L232.791 107.12C232.515 107.155 232.134 107.158 231.647 107.13C231.17 107.105 230.658 107.061 230.111 106.998C229.564 106.935 229.03 106.868 228.509 106.797C227.988 106.726 227.537 106.664 227.155 106.611C226.298 106.491 225.464 106.425 224.653 106.414C223.842 106.403 223.077 106.473 222.356 106.623C221.644 106.769 221 107.022 220.424 107.382C219.601 107.896 219.324 108.364 219.595 108.786C219.866 109.207 220.535 109.542 221.604 109.788Z" fill="#C8C8C8"/>
<rect width="49" height="2" transform="matrix(0.97437 0.224951 -0.848048 0.529919 176.227 106.15)" fill="#C8C8C8"/>
<g filter="url(#filter2_d_1980_1913)">
<rect x="0.063161" y="0.377435" width="71" height="71" rx="11.5" transform="matrix(0.97437 0.224951 -0.848048 0.529919 213.322 76.1632)" fill="#C8C8C8" stroke="#C8C8C8"/>
</g>
<path d="M186.547 106.178L180.929 104.881L216.445 91.4412L222.943 92.9413L207.898 111.107L202.28 109.81L214.622 95.4579L214.395 95.4055L186.547 106.178ZM196.647 100.025L211.968 103.562L208.289 105.862L192.967 102.324L196.647 100.025ZM216.986 113.533C215.605 113.214 214.576 112.793 213.897 112.27C213.236 111.744 213.008 111.142 213.213 110.464C213.427 109.788 214.156 109.062 215.399 108.285C216.469 107.616 217.581 107.116 218.734 106.783C219.888 106.451 221.067 106.244 222.272 106.163C223.477 106.082 224.678 106.088 225.875 106.181C227.091 106.272 228.277 106.408 229.436 106.591C230.828 106.814 231.966 106.989 232.851 107.116C233.744 107.237 234.469 107.278 235.026 107.237C235.601 107.194 236.102 107.039 236.53 106.771L236.604 106.725C237.535 106.144 237.938 105.62 237.815 105.155C237.691 104.69 237.034 104.32 235.842 104.045C234.584 103.754 233.348 103.673 232.133 103.801C230.927 103.931 229.871 104.17 228.966 104.517L224.763 103.04C226.294 102.407 227.881 101.95 229.525 101.667C231.177 101.379 232.826 101.26 234.471 101.308C236.124 101.352 237.711 101.549 239.234 101.901C240.284 102.143 241.222 102.451 242.048 102.825C242.875 103.199 243.471 103.64 243.838 104.147C244.213 104.649 244.241 105.223 243.921 105.868C243.611 106.514 242.826 107.231 241.567 108.018L228.874 115.95L223.937 114.81L226.542 113.182L226.372 113.143C225.533 113.4 224.6 113.607 223.571 113.764C222.56 113.918 221.49 113.984 220.358 113.963C219.245 113.938 218.121 113.795 216.986 113.533ZM221.604 111.788C222.635 112.026 223.706 112.122 224.816 112.076C225.935 112.024 226.994 111.86 227.993 111.584C229.002 111.309 229.856 110.954 230.556 110.516L232.791 109.12C232.515 109.155 232.134 109.158 231.647 109.13C231.17 109.105 230.658 109.061 230.111 108.998C229.564 108.935 229.03 108.868 228.509 108.797C227.988 108.726 227.537 108.664 227.155 108.611C226.298 108.491 225.464 108.425 224.653 108.414C223.842 108.403 223.077 108.473 222.356 108.623C221.644 108.769 221 109.022 220.424 109.382C219.601 109.896 219.324 110.364 219.595 110.786C219.866 111.207 220.535 111.542 221.604 111.788Z" fill="#C8C8C8"/>
<rect width="49" height="2" transform="matrix(0.97437 0.224951 -0.848048 0.529919 176.227 108.15)" fill="#C8C8C8"/>
<g filter="url(#filter3_d_1980_1913)">
<rect x="0.063161" y="0.377435" width="71" height="71" rx="11.5" transform="matrix(0.97437 0.224951 -0.848048 0.529919 213.322 78.1632)" fill="#C8C8C8" stroke="#C8C8C8"/>
</g>
<path d="M186.547 108.178L180.929 106.881L216.445 93.4412L222.943 94.9413L207.898 113.107L202.28 111.81L214.622 97.4579L214.395 97.4055L186.547 108.178ZM196.647 102.025L211.968 105.562L208.289 107.862L192.967 104.324L196.647 102.025ZM216.986 115.533C215.605 115.214 214.576 114.793 213.897 114.27C213.236 113.744 213.008 113.142 213.213 112.464C213.427 111.788 214.156 111.062 215.399 110.285C216.469 109.616 217.581 109.116 218.734 108.783C219.888 108.451 221.067 108.244 222.272 108.163C223.477 108.082 224.678 108.088 225.875 108.181C227.091 108.272 228.277 108.408 229.436 108.591C230.828 108.814 231.966 108.989 232.851 109.116C233.744 109.237 234.469 109.278 235.026 109.237C235.601 109.194 236.102 109.039 236.53 108.771L236.604 108.725C237.535 108.144 237.938 107.62 237.815 107.155C237.691 106.69 237.034 106.32 235.842 106.045C234.584 105.754 233.348 105.673 232.133 105.801C230.927 105.931 229.871 106.17 228.966 106.517L224.763 105.04C226.294 104.407 227.881 103.95 229.525 103.667C231.177 103.379 232.826 103.26 234.471 103.308C236.124 103.352 237.711 103.549 239.234 103.901C240.284 104.143 241.222 104.451 242.048 104.825C242.875 105.199 243.471 105.64 243.838 106.147C244.213 106.649 244.241 107.223 243.921 107.868C243.611 108.514 242.826 109.231 241.567 110.018L228.874 117.95L223.937 116.81L226.542 115.182L226.372 115.143C225.533 115.4 224.6 115.607 223.571 115.764C222.56 115.918 221.49 115.984 220.358 115.963C219.245 115.938 218.121 115.795 216.986 115.533ZM221.604 113.788C222.635 114.026 223.706 114.122 224.816 114.076C225.935 114.024 226.994 113.86 227.993 113.584C229.002 113.309 229.856 112.954 230.556 112.516L232.791 111.12C232.515 111.155 232.134 111.158 231.647 111.13C231.17 111.105 230.658 111.061 230.111 110.998C229.564 110.935 229.03 110.868 228.509 110.797C227.988 110.726 227.537 110.664 227.155 110.611C226.298 110.491 225.464 110.425 224.653 110.414C223.842 110.403 223.077 110.473 222.356 110.623C221.644 110.769 221 111.022 220.424 111.382C219.601 111.896 219.324 112.364 219.595 112.786C219.866 113.207 220.535 113.542 221.604 113.788Z" fill="#C8C8C8"/>
<rect width="49" height="2" transform="matrix(0.97437 0.224951 -0.848048 0.529919 176.227 110.15)" fill="#C8C8C8"/>
<g filter="url(#filter4_d_1980_1913)">
<rect x="0.063161" y="0.377435" width="71" height="71" rx="11.5" transform="matrix(0.97437 0.224951 -0.848048 0.529919 213.322 71.1632)" fill="white" stroke="#C8C8C8"/>
</g>
<path d="M186.547 101.178L195.18 97.8352L206.104 100.357L202.28 104.81L207.898 106.107L222.943 87.9413L216.445 86.4412L180.929 99.881L186.547 101.178ZM200.278 95.8635L214.395 90.4055L214.622 90.4579L208.365 97.7304L200.278 95.8635ZM216.986 108.533C220.405 109.322 223.843 108.922 226.372 108.143L226.542 108.182L223.937 109.81L228.874 110.95L241.567 103.018C246.58 99.8859 243.391 97.8606 239.234 96.9009C234.652 95.843 229.356 96.1418 224.763 98.0401L228.966 99.5175C230.773 98.8253 233.331 98.4649 235.842 99.0447C238.226 99.5949 238.469 100.56 236.604 101.725L236.53 101.771C235.246 102.573 233.638 102.255 229.436 101.591C224.813 100.862 219.671 100.615 215.399 103.285C211.67 105.615 212.829 107.573 216.986 108.533ZM221.604 106.788C219.462 106.294 218.782 105.408 220.424 104.382C222.14 103.309 224.573 103.258 227.155 103.611C228.663 103.822 231.655 104.259 232.791 104.12L230.556 105.516C228.445 106.836 224.697 107.502 221.604 106.788Z" fill="black"/>
<rect width="49" height="2" transform="matrix(0.97437 0.224951 -0.848048 0.529919 176.227 103.15)" fill="#FC5858"/>
<g filter="url(#filter5_d_1980_1913)">
<rect x="0.063161" y="0.377435" width="71" height="71" rx="11.5" transform="matrix(0.97437 0.224951 -0.848048 0.529919 136.224 47.1632)" fill="#00408C" stroke="#00408C"/>
</g>
<g filter="url(#filter6_d_1980_1913)">
<rect x="0.063161" y="0.377435" width="71" height="71" rx="11.5" transform="matrix(0.97437 0.224951 -0.848048 0.529919 136.224 48.1632)" fill="#00408C" stroke="#00408C"/>
</g>
<g filter="url(#filter7_d_1980_1913)">
<rect x="0.063161" y="0.377435" width="71" height="71" rx="11.5" transform="matrix(0.97437 0.224951 -0.848048 0.529919 136.224 49.1632)" fill="#00408C" stroke="#00408C"/>
</g>
<g filter="url(#filter8_d_1980_1913)">
<rect x="0.063161" y="0.377435" width="71" height="71" rx="11.5" transform="matrix(0.97437 0.224951 -0.848048 0.529919 136.224 50.1632)" fill="#00408C" stroke="#00408C"/>
</g>
<g filter="url(#filter9_d_1980_1913)">
<rect x="0.063161" y="0.377435" width="71" height="71" rx="11.5" transform="matrix(0.97437 0.224951 -0.848048 0.529919 136.224 51.1632)" fill="#00408C" stroke="#00408C"/>
</g>
<g filter="url(#filter10_d_1980_1913)">
<rect x="0.063161" y="0.377435" width="71" height="71" rx="11.5" transform="matrix(0.97437 0.224951 -0.848048 0.529919 136.224 52.1632)" fill="#00408C" stroke="#00408C"/>
</g>
<g filter="url(#filter11_dd_1980_1913)">
<path d="M133.668 75.7005L106.457 76.0962L110.84 73.3572L129.779 73.3234L129.388 73.4339L129.956 73.079L129.877 73.2616L121.237 66.8608L125.62 64.1218L137.224 73.4785L133.668 75.7005ZM147.49 85.9603L143.922 88.1901L125.153 83.857L128.721 81.6272L147.49 85.9603Z" fill="#00408C"/>
<path d="M133.668 75.7005L106.457 76.0962L110.84 73.3572L129.779 73.3234L129.388 73.4339L129.956 73.079L129.877 73.2616L121.237 66.8608L125.62 64.1218L137.224 73.4785L133.668 75.7005ZM147.49 85.9603L143.922 88.1901L125.153 83.857L128.721 81.6272L147.49 85.9603Z" fill="#00408C"/>
</g>
<g filter="url(#filter12_d_1980_1913)">
<rect x="0.063161" y="0.377435" width="71" height="71" rx="11.5" transform="matrix(0.97437 0.224951 -0.848048 0.529919 136.224 46.1632)" fill="#000B18" stroke="#00408C"/>
</g>
<g filter="url(#filter13_dd_1980_1913)">
<path d="M133.668 74.7005L137.224 72.4785L125.62 63.1218L121.237 65.8608L129.783 72.187L129.561 72.3259L110.84 72.3572L106.457 75.0962L133.668 74.7005ZM147.49 84.9603L128.721 80.6272L125.153 82.857L143.922 87.1901L147.49 84.9603Z" fill="#7AA6FF"/>
</g>
<g filter="url(#filter14_d_1980_1913)">
<rect x="0.063161" y="0.377435" width="71" height="71" rx="11.5" transform="matrix(0.97437 0.224951 -0.848048 0.529919 94.3812 107.163)" fill="#C8C8C8" stroke="#C8C8C8"/>
</g>
<mask id="mask0_1980_1913" style="mask-type:alpha" maskUnits="userSpaceOnUse" x="39" y="109" width="119" height="51">
<rect x="0.063161" y="0.377435" width="71" height="71" rx="11.5" transform="matrix(0.97437 0.224951 -0.848048 0.529919 94.3812 107.163)" fill="#C8C8C8" stroke="#C8C8C8"/>
</mask>
<g mask="url(#mask0_1980_1913)">
<g opacity="0.15" filter="url(#filter15_f_1980_1913)">
<rect width="152.423" height="18.2907" transform="matrix(1.26785 -0.0701463 -0.247246 0.571399 4.8021 154.283)" fill="#C8C8C8"/>
<rect width="152.423" height="18.2907" transform="matrix(1.26785 -0.0701463 -0.247246 0.571399 9.3251 143.831)" fill="#C8C8C8"/>
<rect width="152.423" height="18.2907" transform="matrix(1.26785 -0.0701463 -0.247246 0.571399 13.8469 133.38)" fill="#C8C8C8"/>
<rect width="152.423" height="18.2907" transform="matrix(1.26785 -0.0701463 -0.247246 0.571399 18.3694 122.929)" fill="#C8C8C8"/>
<rect width="152.423" height="18.2907" transform="matrix(1.26785 -0.0701463 -0.247246 0.571399 22.8928 112.478)" fill="#C8C8C8"/>
</g>
</g>
<mask id="mask1_1980_1913" style="mask-type:alpha" maskUnits="userSpaceOnUse" x="68" y="120" width="61" height="28">
<circle cx="23.5" cy="23.5" r="23.5" transform="matrix(0.97437 0.224951 -0.848048 0.529919 95.5753 116.059)" fill="#C8C8C8"/>
</mask>
<g mask="url(#mask1_1980_1913)">
<rect width="87.6464" height="10.5176" transform="matrix(1.26785 -0.0701463 -0.247246 0.571399 48.7489 145.349)" fill="#C8C8C8"/>
<rect width="87.6464" height="10.5176" transform="matrix(1.26785 -0.0701463 -0.247246 0.571399 51.3493 139.339)" fill="#C8C8C8"/>
<rect width="87.6464" height="10.5176" transform="matrix(1.26785 -0.0701463 -0.247246 0.571399 53.9495 133.329)" fill="#C8C8C8"/>
<rect width="87.6464" height="10.5176" transform="matrix(1.26785 -0.0701463 -0.247246 0.571399 56.55 127.319)" fill="#C8C8C8"/>
<rect width="87.6464" height="10.5176" transform="matrix(1.26785 -0.0701463 -0.247246 0.571399 59.1505 121.31)" fill="#C8C8C8"/>
</g>
<g filter="url(#filter16_d_1980_1913)">
<rect x="0.063161" y="0.377435" width="71" height="71" rx="11.5" transform="matrix(0.97437 0.224951 -0.848048 0.529919 94.3812 108.163)" fill="#C8C8C8" stroke="#C8C8C8"/>
</g>
<mask id="mask2_1980_1913" style="mask-type:alpha" maskUnits="userSpaceOnUse" x="39" y="110" width="119" height="51">
<rect x="0.063161" y="0.377435" width="71" height="71" rx="11.5" transform="matrix(0.97437 0.224951 -0.848048 0.529919 94.3812 108.163)" fill="#C8C8C8" stroke="#C8C8C8"/>
</mask>
<g mask="url(#mask2_1980_1913)">
<g opacity="0.15" filter="url(#filter17_f_1980_1913)">
<rect width="152.423" height="18.2907" transform="matrix(1.26785 -0.0701463 -0.247246 0.571399 4.8021 155.283)" fill="#C8C8C8"/>
<rect width="152.423" height="18.2907" transform="matrix(1.26785 -0.0701463 -0.247246 0.571399 9.3251 144.831)" fill="#C8C8C8"/>
<rect width="152.423" height="18.2907" transform="matrix(1.26785 -0.0701463 -0.247246 0.571399 13.8469 134.38)" fill="#C8C8C8"/>
<rect width="152.423" height="18.2907" transform="matrix(1.26785 -0.0701463 -0.247246 0.571399 18.3694 123.929)" fill="#C8C8C8"/>
<rect width="152.423" height="18.2907" transform="matrix(1.26785 -0.0701463 -0.247246 0.571399 22.8928 113.478)" fill="#C8C8C8"/>
</g>
</g>
<mask id="mask3_1980_1913" style="mask-type:alpha" maskUnits="userSpaceOnUse" x="68" y="121" width="61" height="28">
<circle cx="23.5" cy="23.5" r="23.5" transform="matrix(0.97437 0.224951 -0.848048 0.529919 95.5753 117.059)" fill="#C8C8C8"/>
</mask>
<g mask="url(#mask3_1980_1913)">
<rect width="87.6464" height="10.5176" transform="matrix(1.26785 -0.0701463 -0.247246 0.571399 48.7489 146.349)" fill="#C8C8C8"/>
<rect width="87.6464" height="10.5176" transform="matrix(1.26785 -0.0701463 -0.247246 0.571399 51.3493 140.339)" fill="#C8C8C8"/>
<rect width="87.6464" height="10.5176" transform="matrix(1.26785 -0.0701463 -0.247246 0.571399 53.9495 134.329)" fill="#C8C8C8"/>
<rect width="87.6464" height="10.5176" transform="matrix(1.26785 -0.0701463 -0.247246 0.571399 56.55 128.319)" fill="#C8C8C8"/>
<rect width="87.6464" height="10.5176" transform="matrix(1.26785 -0.0701463 -0.247246 0.571399 59.1505 122.31)" fill="#C8C8C8"/>
</g>
<g filter="url(#filter18_d_1980_1913)">
<rect x="0.063161" y="0.377435" width="71" height="71" rx="11.5" transform="matrix(0.97437 0.224951 -0.848048 0.529919 94.3812 109.163)" fill="#C8C8C8" stroke="#C8C8C8"/>
</g>
<mask id="mask4_1980_1913" style="mask-type:alpha" maskUnits="userSpaceOnUse" x="39" y="111" width="119" height="51">
<rect x="0.063161" y="0.377435" width="71" height="71" rx="11.5" transform="matrix(0.97437 0.224951 -0.848048 0.529919 94.3812 109.163)" fill="#C8C8C8" stroke="#C8C8C8"/>
</mask>
<g mask="url(#mask4_1980_1913)">
<g opacity="0.15" filter="url(#filter19_f_1980_1913)">
<rect width="152.423" height="18.2907" transform="matrix(1.26785 -0.0701463 -0.247246 0.571399 4.8021 156.283)" fill="#C8C8C8"/>
<rect width="152.423" height="18.2907" transform="matrix(1.26785 -0.0701463 -0.247246 0.571399 9.3251 145.831)" fill="#C8C8C8"/>
<rect width="152.423" height="18.2907" transform="matrix(1.26785 -0.0701463 -0.247246 0.571399 13.8469 135.38)" fill="#C8C8C8"/>
<rect width="152.423" height="18.2907" transform="matrix(1.26785 -0.0701463 -0.247246 0.571399 18.3694 124.929)" fill="#C8C8C8"/>
<rect width="152.423" height="18.2907" transform="matrix(1.26785 -0.0701463 -0.247246 0.571399 22.8928 114.478)" fill="#C8C8C8"/>
</g>
</g>
<mask id="mask5_1980_1913" style="mask-type:alpha" maskUnits="userSpaceOnUse" x="68" y="122" width="61" height="28">
<circle cx="23.5" cy="23.5" r="23.5" transform="matrix(0.97437 0.224951 -0.848048 0.529919 95.5753 118.059)" fill="#C8C8C8"/>
</mask>
<g mask="url(#mask5_1980_1913)">
<rect width="87.6464" height="10.5176" transform="matrix(1.26785 -0.0701463 -0.247246 0.571399 48.7489 147.349)" fill="#C8C8C8"/>
<rect width="87.6464" height="10.5176" transform="matrix(1.26785 -0.0701463 -0.247246 0.571399 51.3493 141.339)" fill="#C8C8C8"/>
<rect width="87.6464" height="10.5176" transform="matrix(1.26785 -0.0701463 -0.247246 0.571399 53.9495 135.329)" fill="#C8C8C8"/>
<rect width="87.6464" height="10.5176" transform="matrix(1.26785 -0.0701463 -0.247246 0.571399 56.55 129.319)" fill="#C8C8C8"/>
<rect width="87.6464" height="10.5176" transform="matrix(1.26785 -0.0701463 -0.247246 0.571399 59.1505 123.31)" fill="#C8C8C8"/>
</g>
<g filter="url(#filter20_d_1980_1913)">
<rect x="0.063161" y="0.377435" width="71" height="71" rx="11.5" transform="matrix(0.97437 0.224951 -0.848048 0.529919 94.3812 110.163)" fill="#C8C8C8" stroke="#C8C8C8"/>
</g>
<mask id="mask6_1980_1913" style="mask-type:alpha" maskUnits="userSpaceOnUse" x="39" y="112" width="119" height="51">
<rect x="0.063161" y="0.377435" width="71" height="71" rx="11.5" transform="matrix(0.97437 0.224951 -0.848048 0.529919 94.3812 110.163)" fill="#C8C8C8" stroke="#C8C8C8"/>
</mask>
<g mask="url(#mask6_1980_1913)">
<g opacity="0.15" filter="url(#filter21_f_1980_1913)">
<rect width="152.423" height="18.2907" transform="matrix(1.26785 -0.0701463 -0.247246 0.571399 4.8021 157.283)" fill="#C8C8C8"/>
<rect width="152.423" height="18.2907" transform="matrix(1.26785 -0.0701463 -0.247246 0.571399 9.3251 146.831)" fill="#C8C8C8"/>
<rect width="152.423" height="18.2907" transform="matrix(1.26785 -0.0701463 -0.247246 0.571399 13.8469 136.38)" fill="#C8C8C8"/>
<rect width="152.423" height="18.2907" transform="matrix(1.26785 -0.0701463 -0.247246 0.571399 18.3694 125.929)" fill="#C8C8C8"/>
<rect width="152.423" height="18.2907" transform="matrix(1.26785 -0.0701463 -0.247246 0.571399 22.8928 115.478)" fill="#C8C8C8"/>
</g>
</g>
<mask id="mask7_1980_1913" style="mask-type:alpha" maskUnits="userSpaceOnUse" x="68" y="123" width="61" height="28">
<circle cx="23.5" cy="23.5" r="23.5" transform="matrix(0.97437 0.224951 -0.848048 0.529919 95.5753 119.059)" fill="#C8C8C8"/>
</mask>
<g mask="url(#mask7_1980_1913)">
<rect width="87.6464" height="10.5176" transform="matrix(1.26785 -0.0701463 -0.247246 0.571399 48.7489 148.349)" fill="#C8C8C8"/>
<rect width="87.6464" height="10.5176" transform="matrix(1.26785 -0.0701463 -0.247246 0.571399 51.3493 142.339)" fill="#C8C8C8"/>
<rect width="87.6464" height="10.5176" transform="matrix(1.26785 -0.0701463 -0.247246 0.571399 53.9495 136.329)" fill="#C8C8C8"/>
<rect width="87.6464" height="10.5176" transform="matrix(1.26785 -0.0701463 -0.247246 0.571399 56.55 130.319)" fill="#C8C8C8"/>
<rect width="87.6464" height="10.5176" transform="matrix(1.26785 -0.0701463 -0.247246 0.571399 59.1505 124.31)" fill="#C8C8C8"/>
</g>
<g filter="url(#filter22_d_1980_1913)">
<rect x="0.063161" y="0.377435" width="71" height="71" rx="11.5" transform="matrix(0.97437 0.224951 -0.848048 0.529919 94.3812 111.163)" fill="#C8C8C8" stroke="#C8C8C8"/>
</g>
<mask id="mask8_1980_1913" style="mask-type:alpha" maskUnits="userSpaceOnUse" x="39" y="113" width="119" height="51">
<rect x="0.063161" y="0.377435" width="71" height="71" rx="11.5" transform="matrix(0.97437 0.224951 -0.848048 0.529919 94.3812 111.163)" fill="#C8C8C8" stroke="#C8C8C8"/>
</mask>
<g mask="url(#mask8_1980_1913)">
<g opacity="0.15" filter="url(#filter23_f_1980_1913)">
<rect width="152.423" height="18.2907" transform="matrix(1.26785 -0.0701463 -0.247246 0.571399 4.8021 158.283)" fill="#C8C8C8"/>
<rect width="152.423" height="18.2907" transform="matrix(1.26785 -0.0701463 -0.247246 0.571399 9.3251 147.831)" fill="#C8C8C8"/>
<rect width="152.423" height="18.2907" transform="matrix(1.26785 -0.0701463 -0.247246 0.571399 13.8469 137.38)" fill="#C8C8C8"/>
<rect width="152.423" height="18.2907" transform="matrix(1.26785 -0.0701463 -0.247246 0.571399 18.3694 126.929)" fill="#C8C8C8"/>
<rect width="152.423" height="18.2907" transform="matrix(1.26785 -0.0701463 -0.247246 0.571399 22.8928 116.478)" fill="#C8C8C8"/>
</g>
</g>
<mask id="mask9_1980_1913" style="mask-type:alpha" maskUnits="userSpaceOnUse" x="68" y="124" width="61" height="28">
<circle cx="23.5" cy="23.5" r="23.5" transform="matrix(0.97437 0.224951 -0.848048 0.529919 95.5753 120.059)" fill="#C8C8C8"/>
</mask>
<g mask="url(#mask9_1980_1913)">
<rect width="87.6464" height="10.5176" transform="matrix(1.26785 -0.0701463 -0.247246 0.571399 48.7489 149.349)" fill="#C8C8C8"/>
<rect width="87.6464" height="10.5176" transform="matrix(1.26785 -0.0701463 -0.247246 0.571399 51.3493 143.339)" fill="#C8C8C8"/>
<rect width="87.6464" height="10.5176" transform="matrix(1.26785 -0.0701463 -0.247246 0.571399 53.9495 137.329)" fill="#C8C8C8"/>
<rect width="87.6464" height="10.5176" transform="matrix(1.26785 -0.0701463 -0.247246 0.571399 56.55 131.319)" fill="#C8C8C8"/>
<rect width="87.6464" height="10.5176" transform="matrix(1.26785 -0.0701463 -0.247246 0.571399 59.1505 125.31)" fill="#C8C8C8"/>
</g>
<g filter="url(#filter24_d_1980_1913)">
<rect x="0.063161" y="0.377435" width="71" height="71" rx="11.5" transform="matrix(0.97437 0.224951 -0.848048 0.529919 94.3812 112.163)" fill="#C8C8C8" stroke="#C8C8C8"/>
</g>
<mask id="mask10_1980_1913" style="mask-type:alpha" maskUnits="userSpaceOnUse" x="39" y="114" width="119" height="51">
<rect x="0.063161" y="0.377435" width="71" height="71" rx="11.5" transform="matrix(0.97437 0.224951 -0.848048 0.529919 94.3812 112.163)" fill="#C8C8C8" stroke="#C8C8C8"/>
</mask>
<g mask="url(#mask10_1980_1913)">
<g opacity="0.15" filter="url(#filter25_f_1980_1913)">
<rect width="152.423" height="18.2907" transform="matrix(1.26785 -0.0701463 -0.247246 0.571399 4.8021 159.283)" fill="#C8C8C8"/>
<rect width="152.423" height="18.2907" transform="matrix(1.26785 -0.0701463 -0.247246 0.571399 9.3251 148.831)" fill="#C8C8C8"/>
<rect width="152.423" height="18.2907" transform="matrix(1.26785 -0.0701463 -0.247246 0.571399 13.8469 138.38)" fill="#C8C8C8"/>
<rect width="152.423" height="18.2907" transform="matrix(1.26785 -0.0701463 -0.247246 0.571399 18.3694 127.929)" fill="#C8C8C8"/>
<rect width="152.423" height="18.2907" transform="matrix(1.26785 -0.0701463 -0.247246 0.571399 22.8928 117.478)" fill="#C8C8C8"/>
</g>
</g>
<mask id="mask11_1980_1913" style="mask-type:alpha" maskUnits="userSpaceOnUse" x="68" y="125" width="61" height="28">
<circle cx="23.5" cy="23.5" r="23.5" transform="matrix(0.97437 0.224951 -0.848048 0.529919 95.5753 121.059)" fill="#C8C8C8"/>
</mask>
<g mask="url(#mask11_1980_1913)">
<rect width="87.6464" height="10.5176" transform="matrix(1.26785 -0.0701463 -0.247246 0.571399 48.7489 150.349)" fill="#C8C8C8"/>
<rect width="87.6464" height="10.5176" transform="matrix(1.26785 -0.0701463 -0.247246 0.571399 51.3493 144.339)" fill="#C8C8C8"/>
<rect width="87.6464" height="10.5176" transform="matrix(1.26785 -0.0701463 -0.247246 0.571399 53.9495 138.329)" fill="#C8C8C8"/>
<rect width="87.6464" height="10.5176" transform="matrix(1.26785 -0.0701463 -0.247246 0.571399 56.55 132.319)" fill="#C8C8C8"/>
<rect width="87.6464" height="10.5176" transform="matrix(1.26785 -0.0701463 -0.247246 0.571399 59.1505 126.31)" fill="#C8C8C8"/>
</g>
<g filter="url(#filter26_d_1980_1913)">
<rect x="0.063161" y="0.377435" width="71" height="71" rx="11.5" transform="matrix(0.97437 0.224951 -0.848048 0.529919 94.3812 106.163)" fill="white" stroke="#C8C8C8"/>
</g>
<mask id="mask12_1980_1913" style="mask-type:alpha" maskUnits="userSpaceOnUse" x="39" y="108" width="119" height="51">
<rect x="0.063161" y="0.377435" width="71" height="71" rx="11.5" transform="matrix(0.97437 0.224951 -0.848048 0.529919 94.3812 106.163)" fill="white" stroke="#C8C8C8"/>
</mask>
<g mask="url(#mask12_1980_1913)">
<g opacity="0.15" filter="url(#filter27_f_1980_1913)">
<rect width="152.423" height="18.2907" transform="matrix(1.26785 -0.0701463 -0.247246 0.571399 4.8021 153.283)" fill="#FFA30D"/>
<rect width="152.423" height="18.2907" transform="matrix(1.26785 -0.0701463 -0.247246 0.571399 9.3251 142.831)" fill="#E64046"/>
<rect width="152.423" height="18.2907" transform="matrix(1.26785 -0.0701463 -0.247246 0.571399 13.8469 132.38)" fill="#0075FF"/>
<rect width="152.423" height="18.2907" transform="matrix(1.26785 -0.0701463 -0.247246 0.571399 18.3694 121.929)" fill="#151515"/>
<rect width="152.423" height="18.2907" transform="matrix(1.26785 -0.0701463 -0.247246 0.571399 22.8928 111.478)" fill="#E9E9E9"/>
</g>
</g>
<mask id="mask13_1980_1913" style="mask-type:alpha" maskUnits="userSpaceOnUse" x="68" y="119" width="61" height="28">
<circle cx="23.5" cy="23.5" r="23.5" transform="matrix(0.97437 0.224951 -0.848048 0.529919 95.5753 115.059)" fill="#C4C4C4"/>
</mask>
<g mask="url(#mask13_1980_1913)">
<rect width="87.6464" height="10.5176" transform="matrix(1.26785 -0.0701463 -0.247246 0.571399 48.7489 144.349)" fill="#FFA30D"/>
<rect width="87.6464" height="10.5176" transform="matrix(1.26785 -0.0701463 -0.247246 0.571399 51.3493 138.339)" fill="#E64046"/>
<rect width="87.6464" height="10.5176" transform="matrix(1.26785 -0.0701463 -0.247246 0.571399 53.9495 132.329)" fill="#0075FF"/>
<rect width="87.6464" height="10.5176" transform="matrix(1.26785 -0.0701463 -0.247246 0.571399 56.55 126.319)" fill="#151515"/>
<rect width="87.6464" height="10.5176" transform="matrix(1.26785 -0.0701463 -0.247246 0.571399 59.1505 120.31)" fill="#E9E9E9"/>
</g>
<defs>
<filter id="filter0_d_1980_1913" x="146.308" y="65.1484" width="142.478" height="74.0537" filterUnits="userSpaceOnUse" color-interpolation-filters="sRGB">
<feFlood flood-opacity="0" result="BackgroundImageFix"/>
<feColorMatrix in="SourceAlpha" type="matrix" values="0 0 0 0 0 0 0 0 0 0 0 0 0 0 0 0 0 0 127 0" result="hardAlpha"/>
<feOffset dy="3"/>
<feGaussianBlur stdDeviation="6"/>
<feColorMatrix type="matrix" values="0 0 0 0 0 0 0 0 0 0 0 0 0 0 0 0 0 0 0.06 0"/>
<feBlend mode="normal" in2="BackgroundImageFix" result="effect1_dropShadow_1980_1913"/>
<feBlend mode="normal" in="SourceGraphic" in2="effect1_dropShadow_1980_1913" result="shape"/>
</filter>
<filter id="filter1_d_1980_1913" x="146.308" y="67.1484" width="142.478" height="74.0537" filterUnits="userSpaceOnUse" color-interpolation-filters="sRGB">
<feFlood flood-opacity="0" result="BackgroundImageFix"/>
<feColorMatrix in="SourceAlpha" type="matrix" values="0 0 0 0 0 0 0 0 0 0 0 0 0 0 0 0 0 0 127 0" result="hardAlpha"/>
<feOffset dy="3"/>
<feGaussianBlur stdDeviation="6"/>
<feColorMatrix type="matrix" values="0 0 0 0 0 0 0 0 0 0 0 0 0 0 0 0 0 0 0.06 0"/>
<feBlend mode="normal" in2="BackgroundImageFix" result="effect1_dropShadow_1980_1913"/>
<feBlend mode="normal" in="SourceGraphic" in2="effect1_dropShadow_1980_1913" result="shape"/>
</filter>
<filter id="filter2_d_1980_1913" x="146.308" y="69.1484" width="142.478" height="74.0537" filterUnits="userSpaceOnUse" color-interpolation-filters="sRGB">
<feFlood flood-opacity="0" result="BackgroundImageFix"/>
<feColorMatrix in="SourceAlpha" type="matrix" values="0 0 0 0 0 0 0 0 0 0 0 0 0 0 0 0 0 0 127 0" result="hardAlpha"/>
<feOffset dy="3"/>
<feGaussianBlur stdDeviation="6"/>
<feColorMatrix type="matrix" values="0 0 0 0 0 0 0 0 0 0 0 0 0 0 0 0 0 0 0.06 0"/>
<feBlend mode="normal" in2="BackgroundImageFix" result="effect1_dropShadow_1980_1913"/>
<feBlend mode="normal" in="SourceGraphic" in2="effect1_dropShadow_1980_1913" result="shape"/>
</filter>
<filter id="filter3_d_1980_1913" x="146.308" y="71.1484" width="142.478" height="74.0537" filterUnits="userSpaceOnUse" color-interpolation-filters="sRGB">
<feFlood flood-opacity="0" result="BackgroundImageFix"/>
<feColorMatrix in="SourceAlpha" type="matrix" values="0 0 0 0 0 0 0 0 0 0 0 0 0 0 0 0 0 0 127 0" result="hardAlpha"/>
<feOffset dy="3"/>
<feGaussianBlur stdDeviation="6"/>
<feColorMatrix type="matrix" values="0 0 0 0 0 0 0 0 0 0 0 0 0 0 0 0 0 0 0.06 0"/>
<feBlend mode="normal" in2="BackgroundImageFix" result="effect1_dropShadow_1980_1913"/>
<feBlend mode="normal" in="SourceGraphic" in2="effect1_dropShadow_1980_1913" result="shape"/>
</filter>
<filter id="filter4_d_1980_1913" x="146.308" y="64.1484" width="142.478" height="74.0537" filterUnits="userSpaceOnUse" color-interpolation-filters="sRGB">
<feFlood flood-opacity="0" result="BackgroundImageFix"/>
<feColorMatrix in="SourceAlpha" type="matrix" values="0 0 0 0 0 0 0 0 0 0 0 0 0 0 0 0 0 0 127 0" result="hardAlpha"/>
<feOffset dy="3"/>
<feGaussianBlur stdDeviation="6"/>
<feColorMatrix type="matrix" values="0 0 0 0 0 0 0 0 0 0 0 0 0 0 0 0 0 0 0.06 0"/>
<feBlend mode="normal" in2="BackgroundImageFix" result="effect1_dropShadow_1980_1913"/>
<feBlend mode="normal" in="SourceGraphic" in2="effect1_dropShadow_1980_1913" result="shape"/>
</filter>
<filter id="filter5_d_1980_1913" x="69.2109" y="40.1484" width="142.478" height="74.0537" filterUnits="userSpaceOnUse" color-interpolation-filters="sRGB">
<feFlood flood-opacity="0" result="BackgroundImageFix"/>
<feColorMatrix in="SourceAlpha" type="matrix" values="0 0 0 0 0 0 0 0 0 0 0 0 0 0 0 0 0 0 127 0" result="hardAlpha"/>
<feOffset dy="3"/>
<feGaussianBlur stdDeviation="6"/>
<feColorMatrix type="matrix" values="0 0 0 0 0 0 0 0 0 0 0 0 0 0 0 0 0 0 0.06 0"/>
<feBlend mode="normal" in2="BackgroundImageFix" result="effect1_dropShadow_1980_1913"/>
<feBlend mode="normal" in="SourceGraphic" in2="effect1_dropShadow_1980_1913" result="shape"/>
</filter>
<filter id="filter6_d_1980_1913" x="69.2109" y="41.1484" width="142.478" height="74.0537" filterUnits="userSpaceOnUse" color-interpolation-filters="sRGB">
<feFlood flood-opacity="0" result="BackgroundImageFix"/>
<feColorMatrix in="SourceAlpha" type="matrix" values="0 0 0 0 0 0 0 0 0 0 0 0 0 0 0 0 0 0 127 0" result="hardAlpha"/>
<feOffset dy="3"/>
<feGaussianBlur stdDeviation="6"/>
<feColorMatrix type="matrix" values="0 0 0 0 0 0 0 0 0 0 0 0 0 0 0 0 0 0 0.06 0"/>
<feBlend mode="normal" in2="BackgroundImageFix" result="effect1_dropShadow_1980_1913"/>
<feBlend mode="normal" in="SourceGraphic" in2="effect1_dropShadow_1980_1913" result="shape"/>
</filter>
<filter id="filter7_d_1980_1913" x="69.2109" y="42.1484" width="142.478" height="74.0537" filterUnits="userSpaceOnUse" color-interpolation-filters="sRGB">
<feFlood flood-opacity="0" result="BackgroundImageFix"/>
<feColorMatrix in="SourceAlpha" type="matrix" values="0 0 0 0 0 0 0 0 0 0 0 0 0 0 0 0 0 0 127 0" result="hardAlpha"/>
<feOffset dy="3"/>
<feGaussianBlur stdDeviation="6"/>
<feColorMatrix type="matrix" values="0 0 0 0 0 0 0 0 0 0 0 0 0 0 0 0 0 0 0.06 0"/>
<feBlend mode="normal" in2="BackgroundImageFix" result="effect1_dropShadow_1980_1913"/>
<feBlend mode="normal" in="SourceGraphic" in2="effect1_dropShadow_1980_1913" result="shape"/>
</filter>
<filter id="filter8_d_1980_1913" x="69.2109" y="43.1484" width="142.478" height="74.0537" filterUnits="userSpaceOnUse" color-interpolation-filters="sRGB">
<feFlood flood-opacity="0" result="BackgroundImageFix"/>
<feColorMatrix in="SourceAlpha" type="matrix" values="0 0 0 0 0 0 0 0 0 0 0 0 0 0 0 0 0 0 127 0" result="hardAlpha"/>
<feOffset dy="3"/>
<feGaussianBlur stdDeviation="6"/>
<feColorMatrix type="matrix" values="0 0 0 0 0 0 0 0 0 0 0 0 0 0 0 0 0 0 0.06 0"/>
<feBlend mode="normal" in2="BackgroundImageFix" result="effect1_dropShadow_1980_1913"/>
<feBlend mode="normal" in="SourceGraphic" in2="effect1_dropShadow_1980_1913" result="shape"/>
</filter>
<filter id="filter9_d_1980_1913" x="69.2109" y="44.1484" width="142.478" height="74.0537" filterUnits="userSpaceOnUse" color-interpolation-filters="sRGB">
<feFlood flood-opacity="0" result="BackgroundImageFix"/>
<feColorMatrix in="SourceAlpha" type="matrix" values="0 0 0 0 0 0 0 0 0 0 0 0 0 0 0 0 0 0 127 0" result="hardAlpha"/>
<feOffset dy="3"/>
<feGaussianBlur stdDeviation="6"/>
<feColorMatrix type="matrix" values="0 0 0 0 0 0 0 0 0 0 0 0 0 0 0 0 0 0 0.06 0"/>
<feBlend mode="normal" in2="BackgroundImageFix" result="effect1_dropShadow_1980_1913"/>
<feBlend mode="normal" in="SourceGraphic" in2="effect1_dropShadow_1980_1913" result="shape"/>
</filter>
<filter id="filter10_d_1980_1913" x="69.2109" y="45.1484" width="142.478" height="74.0537" filterUnits="userSpaceOnUse" color-interpolation-filters="sRGB">
<feFlood flood-opacity="0" result="BackgroundImageFix"/>
<feColorMatrix in="SourceAlpha" type="matrix" values="0 0 0 0 0 0 0 0 0 0 0 0 0 0 0 0 0 0 127 0" result="hardAlpha"/>
<feOffset dy="3"/>
<feGaussianBlur stdDeviation="6"/>
<feColorMatrix type="matrix" values="0 0 0 0 0 0 0 0 0 0 0 0 0 0 0 0 0 0 0.06 0"/>
<feBlend mode="normal" in2="BackgroundImageFix" result="effect1_dropShadow_1980_1913"/>
<feBlend mode="normal" in="SourceGraphic" in2="effect1_dropShadow_1980_1913" result="shape"/>
</filter>
<filter id="filter11_dd_1980_1913" x="93.432" y="55.1221" width="82.6779" height="42.0684" filterUnits="userSpaceOnUse" color-interpolation-filters="sRGB">
<feFlood flood-opacity="0" result="BackgroundImageFix"/>
<feColorMatrix in="SourceAlpha" type="matrix" values="0 0 0 0 0 0 0 0 0 0 0 0 0 0 0 0 0 0 127 0" result="hardAlpha"/>
<feOffset dy="4"/>
<feGaussianBlur stdDeviation="2"/>
<feColorMatrix type="matrix" values="0 0 0 0 0 0 0 0 0 0 0 0 0 0 0 0 0 0 0.25 0"/>
<feBlend mode="normal" in2="BackgroundImageFix" result="effect1_dropShadow_1980_1913"/>
<feColorMatrix in="SourceAlpha" type="matrix" values="0 0 0 0 0 0 0 0 0 0 0 0 0 0 0 0 0 0 127 0" result="hardAlpha"/>
<feOffset/>
<feGaussianBlur stdDeviation="4.5"/>
<feColorMatrix type="matrix" values="0 0 0 0 0.478431 0 0 0 0 0.65098 0 0 0 0 1 0 0 0 0.25 0"/>
<feBlend mode="normal" in2="effect1_dropShadow_1980_1913" result="effect2_dropShadow_1980_1913"/>
<feBlend mode="normal" in="SourceGraphic" in2="effect2_dropShadow_1980_1913" result="shape"/>
</filter>
<filter id="filter12_d_1980_1913" x="69.2109" y="39.1484" width="142.478" height="74.0537" filterUnits="userSpaceOnUse" color-interpolation-filters="sRGB">
<feFlood flood-opacity="0" result="BackgroundImageFix"/>
<feColorMatrix in="SourceAlpha" type="matrix" values="0 0 0 0 0 0 0 0 0 0 0 0 0 0 0 0 0 0 127 0" result="hardAlpha"/>
<feOffset dy="3"/>
<feGaussianBlur stdDeviation="6"/>
<feColorMatrix type="matrix" values="0 0 0 0 0 0 0 0 0 0 0 0 0 0 0 0 0 0 0.06 0"/>
<feBlend mode="normal" in2="BackgroundImageFix" result="effect1_dropShadow_1980_1913"/>
<feBlend mode="normal" in="SourceGraphic" in2="effect1_dropShadow_1980_1913" result="shape"/>
</filter>
<filter id="filter13_dd_1980_1913" x="93.432" y="54.1221" width="82.6779" height="42.0684" filterUnits="userSpaceOnUse" color-interpolation-filters="sRGB">
<feFlood flood-opacity="0" result="BackgroundImageFix"/>
<feColorMatrix in="SourceAlpha" type="matrix" values="0 0 0 0 0 0 0 0 0 0 0 0 0 0 0 0 0 0 127 0" result="hardAlpha"/>
<feOffset dy="4"/>
<feGaussianBlur stdDeviation="2"/>
<feColorMatrix type="matrix" values="0 0 0 0 0 0 0 0 0 0 0 0 0 0 0 0 0 0 0.25 0"/>
<feBlend mode="normal" in2="BackgroundImageFix" result="effect1_dropShadow_1980_1913"/>
<feColorMatrix in="SourceAlpha" type="matrix" values="0 0 0 0 0 0 0 0 0 0 0 0 0 0 0 0 0 0 127 0" result="hardAlpha"/>
<feOffset/>
<feGaussianBlur stdDeviation="4.5"/>
<feColorMatrix type="matrix" values="0 0 0 0 0.478431 0 0 0 0 0.65098 0 0 0 0 1 0 0 0 0.25 0"/>
<feBlend mode="normal" in2="effect1_dropShadow_1980_1913" result="effect2_dropShadow_1980_1913"/>
<feBlend mode="normal" in="SourceGraphic" in2="effect2_dropShadow_1980_1913" result="shape"/>
</filter>
<filter id="filter14_d_1980_1913" x="27.368" y="100.148" width="142.478" height="74.0537" filterUnits="userSpaceOnUse" color-interpolation-filters="sRGB">
<feFlood flood-opacity="0" result="BackgroundImageFix"/>
<feColorMatrix in="SourceAlpha" type="matrix" values="0 0 0 0 0 0 0 0 0 0 0 0 0 0 0 0 0 0 127 0" result="hardAlpha"/>
<feOffset dy="3"/>
<feGaussianBlur stdDeviation="6"/>
<feColorMatrix type="matrix" values="0 0 0 0 0 0 0 0 0 0 0 0 0 0 0 0 0 0 0.06 0"/>
<feBlend mode="normal" in2="BackgroundImageFix" result="effect1_dropShadow_1980_1913"/>
<feBlend mode="normal" in="SourceGraphic" in2="effect1_dropShadow_1980_1913" result="shape"/>
</filter>
<filter id="filter15_f_1980_1913" x="-11.7202" y="89.7861" width="239.863" height="86.9482" filterUnits="userSpaceOnUse" color-interpolation-filters="sRGB">
<feFlood flood-opacity="0" result="BackgroundImageFix"/>
<feBlend mode="normal" in="SourceGraphic" in2="BackgroundImageFix" result="shape"/>
<feGaussianBlur stdDeviation="6" result="effect1_foregroundBlur_1980_1913"/>
</filter>
<filter id="filter16_d_1980_1913" x="27.368" y="101.148" width="142.478" height="74.0537" filterUnits="userSpaceOnUse" color-interpolation-filters="sRGB">
<feFlood flood-opacity="0" result="BackgroundImageFix"/>
<feColorMatrix in="SourceAlpha" type="matrix" values="0 0 0 0 0 0 0 0 0 0 0 0 0 0 0 0 0 0 127 0" result="hardAlpha"/>
<feOffset dy="3"/>
<feGaussianBlur stdDeviation="6"/>
<feColorMatrix type="matrix" values="0 0 0 0 0 0 0 0 0 0 0 0 0 0 0 0 0 0 0.06 0"/>
<feBlend mode="normal" in2="BackgroundImageFix" result="effect1_dropShadow_1980_1913"/>
<feBlend mode="normal" in="SourceGraphic" in2="effect1_dropShadow_1980_1913" result="shape"/>
</filter>
<filter id="filter17_f_1980_1913" x="-11.7202" y="90.7861" width="239.863" height="86.9482" filterUnits="userSpaceOnUse" color-interpolation-filters="sRGB">
<feFlood flood-opacity="0" result="BackgroundImageFix"/>
<feBlend mode="normal" in="SourceGraphic" in2="BackgroundImageFix" result="shape"/>
<feGaussianBlur stdDeviation="6" result="effect1_foregroundBlur_1980_1913"/>
</filter>
<filter id="filter18_d_1980_1913" x="27.368" y="102.148" width="142.478" height="74.0537" filterUnits="userSpaceOnUse" color-interpolation-filters="sRGB">
<feFlood flood-opacity="0" result="BackgroundImageFix"/>
<feColorMatrix in="SourceAlpha" type="matrix" values="0 0 0 0 0 0 0 0 0 0 0 0 0 0 0 0 0 0 127 0" result="hardAlpha"/>
<feOffset dy="3"/>
<feGaussianBlur stdDeviation="6"/>
<feColorMatrix type="matrix" values="0 0 0 0 0 0 0 0 0 0 0 0 0 0 0 0 0 0 0.06 0"/>
<feBlend mode="normal" in2="BackgroundImageFix" result="effect1_dropShadow_1980_1913"/>
<feBlend mode="normal" in="SourceGraphic" in2="effect1_dropShadow_1980_1913" result="shape"/>
</filter>
<filter id="filter19_f_1980_1913" x="-11.7202" y="91.7861" width="239.863" height="86.9482" filterUnits="userSpaceOnUse" color-interpolation-filters="sRGB">
<feFlood flood-opacity="0" result="BackgroundImageFix"/>
<feBlend mode="normal" in="SourceGraphic" in2="BackgroundImageFix" result="shape"/>
<feGaussianBlur stdDeviation="6" result="effect1_foregroundBlur_1980_1913"/>
</filter>
<filter id="filter20_d_1980_1913" x="27.368" y="103.148" width="142.478" height="74.0537" filterUnits="userSpaceOnUse" color-interpolation-filters="sRGB">
<feFlood flood-opacity="0" result="BackgroundImageFix"/>
<feColorMatrix in="SourceAlpha" type="matrix" values="0 0 0 0 0 0 0 0 0 0 0 0 0 0 0 0 0 0 127 0" result="hardAlpha"/>
<feOffset dy="3"/>
<feGaussianBlur stdDeviation="6"/>
<feColorMatrix type="matrix" values="0 0 0 0 0 0 0 0 0 0 0 0 0 0 0 0 0 0 0.06 0"/>
<feBlend mode="normal" in2="BackgroundImageFix" result="effect1_dropShadow_1980_1913"/>
<feBlend mode="normal" in="SourceGraphic" in2="effect1_dropShadow_1980_1913" result="shape"/>
</filter>
<filter id="filter21_f_1980_1913" x="-11.7202" y="92.7861" width="239.863" height="86.9482" filterUnits="userSpaceOnUse" color-interpolation-filters="sRGB">
<feFlood flood-opacity="0" result="BackgroundImageFix"/>
<feBlend mode="normal" in="SourceGraphic" in2="BackgroundImageFix" result="shape"/>
<feGaussianBlur stdDeviation="6" result="effect1_foregroundBlur_1980_1913"/>
</filter>
<filter id="filter22_d_1980_1913" x="27.368" y="104.148" width="142.478" height="74.0537" filterUnits="userSpaceOnUse" color-interpolation-filters="sRGB">
<feFlood flood-opacity="0" result="BackgroundImageFix"/>
<feColorMatrix in="SourceAlpha" type="matrix" values="0 0 0 0 0 0 0 0 0 0 0 0 0 0 0 0 0 0 127 0" result="hardAlpha"/>
<feOffset dy="3"/>
<feGaussianBlur stdDeviation="6"/>
<feColorMatrix type="matrix" values="0 0 0 0 0 0 0 0 0 0 0 0 0 0 0 0 0 0 0.06 0"/>
<feBlend mode="normal" in2="BackgroundImageFix" result="effect1_dropShadow_1980_1913"/>
<feBlend mode="normal" in="SourceGraphic" in2="effect1_dropShadow_1980_1913" result="shape"/>
</filter>
<filter id="filter23_f_1980_1913" x="-11.7202" y="93.7861" width="239.863" height="86.9482" filterUnits="userSpaceOnUse" color-interpolation-filters="sRGB">
<feFlood flood-opacity="0" result="BackgroundImageFix"/>
<feBlend mode="normal" in="SourceGraphic" in2="BackgroundImageFix" result="shape"/>
<feGaussianBlur stdDeviation="6" result="effect1_foregroundBlur_1980_1913"/>
</filter>
<filter id="filter24_d_1980_1913" x="27.368" y="105.148" width="142.478" height="74.0537" filterUnits="userSpaceOnUse" color-interpolation-filters="sRGB">
<feFlood flood-opacity="0" result="BackgroundImageFix"/>
<feColorMatrix in="SourceAlpha" type="matrix" values="0 0 0 0 0 0 0 0 0 0 0 0 0 0 0 0 0 0 127 0" result="hardAlpha"/>
<feOffset dy="3"/>
<feGaussianBlur stdDeviation="6"/>
<feColorMatrix type="matrix" values="0 0 0 0 0 0 0 0 0 0 0 0 0 0 0 0 0 0 0.06 0"/>
<feBlend mode="normal" in2="BackgroundImageFix" result="effect1_dropShadow_1980_1913"/>
<feBlend mode="normal" in="SourceGraphic" in2="effect1_dropShadow_1980_1913" result="shape"/>
</filter>
<filter id="filter25_f_1980_1913" x="-11.7202" y="94.7861" width="239.863" height="86.9482" filterUnits="userSpaceOnUse" color-interpolation-filters="sRGB">
<feFlood flood-opacity="0" result="BackgroundImageFix"/>
<feBlend mode="normal" in="SourceGraphic" in2="BackgroundImageFix" result="shape"/>
<feGaussianBlur stdDeviation="6" result="effect1_foregroundBlur_1980_1913"/>
</filter>
<filter id="filter26_d_1980_1913" x="27.368" y="99.1484" width="142.478" height="74.0537" filterUnits="userSpaceOnUse" color-interpolation-filters="sRGB">
<feFlood flood-opacity="0" result="BackgroundImageFix"/>
<feColorMatrix in="SourceAlpha" type="matrix" values="0 0 0 0 0 0 0 0 0 0 0 0 0 0 0 0 0 0 127 0" result="hardAlpha"/>
<feOffset dy="3"/>
<feGaussianBlur stdDeviation="6"/>
<feColorMatrix type="matrix" values="0 0 0 0 0 0 0 0 0 0 0 0 0 0 0 0 0 0 0.06 0"/>
<feBlend mode="normal" in2="BackgroundImageFix" result="effect1_dropShadow_1980_1913"/>
<feBlend mode="normal" in="SourceGraphic" in2="effect1_dropShadow_1980_1913" result="shape"/>
</filter>
<filter id="filter27_f_1980_1913" x="-11.7202" y="88.7861" width="239.863" height="86.9482" filterUnits="userSpaceOnUse" color-interpolation-filters="sRGB">
<feFlood flood-opacity="0" result="BackgroundImageFix"/>
<feBlend mode="normal" in="SourceGraphic" in2="BackgroundImageFix" result="shape"/>
<feGaussianBlur stdDeviation="6" result="effect1_foregroundBlur_1980_1913"/>
</filter>
</defs>
</svg>
