<svg width="30" height="30" viewBox="0 0 30 30" fill="none" xmlns="http://www.w3.org/2000/svg">
<g filter="url(#filter0_d_5_19)">
<path d="M20 13.5C20 17.0899 17.0899 20 13.5 20C9.91015 20 7 17.0899 7 13.5C7 9.91015 9.91015 7 13.5 7C17.0899 7 20 9.91015 20 13.5Z" fill="url(#paint0_linear_5_19)"/>
</g>
<mask id="path-2-inside-1_5_19" fill="white">
<path fill-rule="evenodd" clip-rule="evenodd" d="M19 13.5C19 16.5376 16.5376 19 13.5 19C10.4624 19 8 16.5376 8 13.5C8 10.4624 10.4624 8 13.5 8C16.5376 8 19 10.4624 19 13.5ZM17.4531 18.6601C16.3578 19.5005 14.9872 20 13.5 20C9.91015 20 7 17.0899 7 13.5C7 9.91015 9.91015 7 13.5 7C17.0899 7 20 9.91015 20 13.5C20 15.2422 19.3146 16.8244 18.1986 17.9914L22.975 22.7678L22.2679 23.4749L17.4531 18.6601Z"/>
</mask>
<path fill-rule="evenodd" clip-rule="evenodd" d="M19 13.5C19 16.5376 16.5376 19 13.5 19C10.4624 19 8 16.5376 8 13.5C8 10.4624 10.4624 8 13.5 8C16.5376 8 19 10.4624 19 13.5ZM17.4531 18.6601C16.3578 19.5005 14.9872 20 13.5 20C9.91015 20 7 17.0899 7 13.5C7 9.91015 9.91015 7 13.5 7C17.0899 7 20 9.91015 20 13.5C20 15.2422 19.3146 16.8244 18.1986 17.9914L22.975 22.7678L22.2679 23.4749L17.4531 18.6601Z" fill="black"/>
<path d="M17.4531 18.6601L18.1602 17.953L17.5402 17.3329L16.8444 17.8668L17.4531 18.6601ZM18.1986 17.9914L17.4759 17.3003L16.8001 18.0071L17.4915 18.6985L18.1986 17.9914ZM22.975 22.7678L23.6821 23.4749L24.3892 22.7678L23.6821 22.0606L22.975 22.7678ZM22.2679 23.4749L21.5608 24.182L22.2679 24.8891L22.975 24.182L22.2679 23.4749ZM13.5 20C17.0899 20 20 17.0899 20 13.5H18C18 15.9853 15.9853 18 13.5 18V20ZM7 13.5C7 17.0899 9.91015 20 13.5 20V18C11.0147 18 9 15.9853 9 13.5H7ZM13.5 7C9.91015 7 7 9.91015 7 13.5H9C9 11.0147 11.0147 9 13.5 9V7ZM20 13.5C20 9.91015 17.0899 7 13.5 7V9C15.9853 9 18 11.0147 18 13.5H20ZM13.5 21C15.215 21 16.798 20.4232 18.0619 19.4535L16.8444 17.8668C15.9176 18.5778 14.7595 19 13.5 19V21ZM6 13.5C6 17.6421 9.35786 21 13.5 21V19C10.4624 19 8 16.5376 8 13.5H6ZM13.5 6C9.35786 6 6 9.35786 6 13.5H8C8 10.4624 10.4624 8 13.5 8V6ZM21 13.5C21 9.35786 17.6421 6 13.5 6V8C16.5376 8 19 10.4624 19 13.5H21ZM18.9214 18.6825C20.2081 17.3368 21 15.5098 21 13.5H19C19 14.9746 18.421 16.3119 17.4759 17.3003L18.9214 18.6825ZM17.4915 18.6985L22.2679 23.4749L23.6821 22.0606L18.9057 17.2843L17.4915 18.6985ZM22.2679 22.0606L21.5608 22.7678L22.975 24.182L23.6821 23.4749L22.2679 22.0606ZM22.975 22.7678L18.1602 17.953L16.746 19.3672L21.5608 24.182L22.975 22.7678Z" fill="black" mask="url(#path-2-inside-1_5_19)"/>
<path d="M13.0233 16V13.9873H11V12.9915H13.0233V11H13.9767V12.9915H16V13.9873H13.9767V16H13.0233Z" fill="black"/>
<defs>
<filter id="filter0_d_5_19" x="6" y="7" width="15" height="15" filterUnits="userSpaceOnUse" color-interpolation-filters="sRGB">
<feFlood flood-opacity="0" result="BackgroundImageFix"/>
<feColorMatrix in="SourceAlpha" type="matrix" values="0 0 0 0 0 0 0 0 0 0 0 0 0 0 0 0 0 0 127 0" result="hardAlpha"/>
<feOffset dy="1"/>
<feGaussianBlur stdDeviation="0.5"/>
<feComposite in2="hardAlpha" operator="out"/>
<feColorMatrix type="matrix" values="0 0 0 0 0 0 0 0 0 0 0 0 0 0 0 0 0 0 0.1 0"/>
<feBlend mode="normal" in2="BackgroundImageFix" result="effect1_dropShadow_5_19"/>
<feBlend mode="normal" in="SourceGraphic" in2="effect1_dropShadow_5_19" result="shape"/>
</filter>
<linearGradient id="paint0_linear_5_19" x1="13.5" y1="7" x2="13.5" y2="20" gradientUnits="userSpaceOnUse">
<stop offset="0.353422" stop-color="white"/>
<stop offset="1" stop-color="#E7E7E7"/>
</linearGradient>
</defs>
</svg>
