<svg width="30" height="30" viewBox="0 0 30 30" fill="none" xmlns="http://www.w3.org/2000/svg">
<g filter="url(#filter0_d_1_72)">
<path fill-rule="evenodd" clip-rule="evenodd" d="M18 19.4444L15 25L12 19.4444L14.4804 19.4444V10.5556L12 10.5556L15 5L18 10.5556H15.5196V19.4444H18Z" fill="url(#paint0_linear_1_72)"/>
</g>
<path fill-rule="evenodd" clip-rule="evenodd" d="M13.6765 20.4444L15 22.8954L16.3235 20.4444L13.6765 20.4444ZM16.3235 9.55556L15 7.1046L13.6765 9.55556L16.3235 9.55556ZM12 10.5556L15 5L18 10.5556L15.5196 10.5556L15.5196 19.4444L18 19.4444L15 25L12 19.4444L14.4804 19.4444L14.4804 10.5556L12 10.5556Z" fill="black"/>
<g filter="url(#filter1_d_1_72)">
<path fill-rule="evenodd" clip-rule="evenodd" d="M19.4444 12L25 15L19.4444 18L19.4444 15.5196L10.5556 15.5196L10.5556 18L5 15L10.5556 12L10.5556 14.4804L19.4444 14.4804L19.4444 12Z" fill="url(#paint1_linear_1_72)"/>
</g>
<path fill-rule="evenodd" clip-rule="evenodd" d="M20.4444 16.3235L22.8954 15L20.4444 13.6765L20.4444 16.3235ZM9.55556 13.6765L7.1046 15L9.55556 16.3235L9.55556 13.6765ZM10.5556 18L5 15L10.5556 12L10.5556 14.4804L19.4444 14.4804L19.4444 12L25 15L19.4444 18L19.4444 15.5196L10.5556 15.5196L10.5556 18Z" fill="black"/>
<defs>
<filter id="filter0_d_1_72" x="11" y="5" width="8" height="22" filterUnits="userSpaceOnUse" color-interpolation-filters="sRGB">
<feFlood flood-opacity="0" result="BackgroundImageFix"/>
<feColorMatrix in="SourceAlpha" type="matrix" values="0 0 0 0 0 0 0 0 0 0 0 0 0 0 0 0 0 0 127 0" result="hardAlpha"/>
<feOffset dy="1"/>
<feGaussianBlur stdDeviation="0.5"/>
<feComposite in2="hardAlpha" operator="out"/>
<feColorMatrix type="matrix" values="0 0 0 0 0 0 0 0 0 0 0 0 0 0 0 0 0 0 0.1 0"/>
<feBlend mode="normal" in2="BackgroundImageFix" result="effect1_dropShadow_1_72"/>
<feBlend mode="normal" in="SourceGraphic" in2="effect1_dropShadow_1_72" result="shape"/>
</filter>
<filter id="filter1_d_1_72" x="4" y="12" width="22" height="8" filterUnits="userSpaceOnUse" color-interpolation-filters="sRGB">
<feFlood flood-opacity="0" result="BackgroundImageFix"/>
<feColorMatrix in="SourceAlpha" type="matrix" values="0 0 0 0 0 0 0 0 0 0 0 0 0 0 0 0 0 0 127 0" result="hardAlpha"/>
<feOffset dy="1"/>
<feGaussianBlur stdDeviation="0.5"/>
<feComposite in2="hardAlpha" operator="out"/>
<feColorMatrix type="matrix" values="0 0 0 0 0 0 0 0 0 0 0 0 0 0 0 0 0 0 0.1 0"/>
<feBlend mode="normal" in2="BackgroundImageFix" result="effect1_dropShadow_1_72"/>
<feBlend mode="normal" in="SourceGraphic" in2="effect1_dropShadow_1_72" result="shape"/>
</filter>
<linearGradient id="paint0_linear_1_72" x1="10" y1="10" x2="20" y2="20" gradientUnits="userSpaceOnUse">
<stop offset="0.353422" stop-color="white"/>
<stop offset="1" stop-color="#E7E7E7"/>
</linearGradient>
<linearGradient id="paint1_linear_1_72" x1="10" y1="20" x2="20" y2="10" gradientUnits="userSpaceOnUse">
<stop offset="0.353422" stop-color="white"/>
<stop offset="1" stop-color="#E7E7E7"/>
</linearGradient>
</defs>
</svg>
