<svg width="296" height="303" viewBox="0 0 296 303" fill="none" xmlns="http://www.w3.org/2000/svg">
<path d="M151.64 27C194.003 27 215.185 27.0003 231.189 35.6357C243.552 42.3064 253.694 52.4477 260.364 64.8105C269 80.8148 269 101.997 269 144.36V158.64C269 201.003 269 222.185 260.364 238.189C253.694 250.552 243.552 260.694 231.189 267.364C215.185 276 194.003 276 151.64 276H144.36C101.997 276 80.8148 276 64.8105 267.364C52.4477 260.694 42.3064 250.552 35.6357 238.189C27.0003 222.185 27 201.003 27 158.64V144.36C27 101.997 27.0003 80.8148 35.6357 64.8105C42.3064 52.4477 52.4477 42.3064 64.8105 35.6357C80.8148 27.0003 101.997 27 144.36 27H151.64ZM57 163C52.0294 163 48 167.029 48 172V210.357C48.0001 235.013 67.9872 255 92.6426 255C95.6012 255 98 252.601 98 249.643V193C98 176.431 84.5685 163 68 163H57ZM155.791 226.651C151.303 222.82 144.697 222.82 140.209 226.651L125.562 239.155C119.2 244.586 123.04 255 131.404 255H164.596C172.96 255 176.8 244.586 170.438 239.155L155.791 226.651ZM228 163C211.431 163 198 176.431 198 193V249.643C198 252.601 200.399 255 203.357 255C228.013 255 248 235.013 248 210.357V172C248 167.029 243.971 163 239 163H228ZM94.4287 48C68.7869 48 48 68.7869 48 94.4287C48.0001 97.5056 50.4944 99.9999 53.5713 100H79C103.853 100 124 120.147 124 145V204.506C124 206.533 126.451 207.549 127.885 206.115C138.994 195.006 157.006 195.006 168.115 206.115C169.549 207.549 172 206.533 172 204.506V145C172 120.147 192.147 100 217 100H242.429C245.506 99.9999 248 97.5056 248 94.4287C248 68.7869 227.213 48 201.571 48H94.4287Z" fill="black"/>
</svg>
