<svg width="296" height="303" viewBox="0 0 296 303" fill="none" xmlns="http://www.w3.org/2000/svg">
<path d="M68 163C84.5685 163 98 176.431 98 193V249.643C98 252.601 95.6012 255 92.6426 255C67.9872 255 48.0001 235.013 48 210.357V172C48 167.029 52.0294 163 57 163H68ZM140.209 226.651C144.697 222.82 151.303 222.82 155.791 226.651L170.438 239.155C176.8 244.586 172.96 255 164.596 255H131.404C123.04 255 119.2 244.586 125.562 239.155L140.209 226.651ZM239 163C243.971 163 248 167.029 248 172V210.357C248 235.013 228.013 255 203.357 255C200.399 255 198 252.601 198 249.643V193C198 176.431 211.431 163 228 163H239ZM201.571 48C227.213 48 248 68.7869 248 94.4287C248 97.5056 245.506 99.9999 242.429 100H217C192.147 100 172 120.147 172 145V204.506C172 206.533 169.549 207.549 168.115 206.115C157.006 195.006 138.994 195.006 127.885 206.115C126.451 207.549 124 206.533 124 204.506V145C124 120.147 103.853 100 79 100H53.5713C50.4944 99.9999 48.0001 97.5056 48 94.4287C48 68.7869 68.7869 48 94.4287 48H201.571Z" fill="white"/>
</svg>
