<svg width="296" height="304" viewBox="0 0 296 304" fill="none" xmlns="http://www.w3.org/2000/svg">
<path d="M157.64 21C200.003 21 221.185 21.0003 237.189 29.6357C249.552 36.3064 259.694 46.4477 266.364 58.8105C275 74.8148 275 95.9968 275 138.36V165.64C275 208.003 275 229.185 266.364 245.189C259.694 257.552 249.552 267.694 237.189 274.364C221.185 283 200.003 283 157.64 283H138.36C95.9968 283 74.8148 283 58.8105 274.364C46.4477 267.694 36.3064 257.552 29.6357 245.189C21.0003 229.185 21 208.003 21 165.64V138.36C21 95.9968 21.0003 74.8148 29.6357 58.8105C36.3064 46.4477 46.4477 36.3064 58.8105 29.6357C74.8148 21.0003 95.9968 21 138.36 21H157.64ZM57 163C52.0294 163 48 167.029 48 172V210.357C48.0001 235.013 67.9872 255 92.6426 255C95.6012 255 98 252.601 98 249.643V193C98 176.431 84.5685 163 68 163H57ZM155.791 226.651C151.303 222.82 144.697 222.82 140.209 226.651L125.562 239.155C119.2 244.586 123.04 255 131.404 255H164.596C172.96 255 176.8 244.586 170.438 239.155L155.791 226.651ZM228 163C211.431 163 198 176.431 198 193V249.643C198 252.601 200.399 255 203.357 255C228.013 255 248 235.013 248 210.357V172C248 167.029 243.971 163 239 163H228ZM94.4287 48C68.7869 48 48 68.7869 48 94.4287C48.0001 97.5056 50.4944 99.9999 53.5713 100H79C103.853 100 124 120.147 124 145V201.506C124 203.533 126.451 204.549 127.885 203.115C138.994 192.006 157.006 192.006 168.115 203.115C169.549 204.549 172 203.533 172 201.506V145C172 120.147 192.147 100 217 100H242.429C245.506 99.9999 248 97.5056 248 94.4287C248 68.7869 227.213 48 201.571 48H94.4287Z" fill="black"/>
</svg>
