<svg width="288" height="273" viewBox="0 0 288 273" fill="none" xmlns="http://www.w3.org/2000/svg">
<path d="M192 0C245.019 0 288 42.9807 288 96V177C288 230.019 245.019 273 192 273H96C42.9807 273 1.3048e-06 230.019 0 177V96C0 42.9807 42.9807 1.54624e-06 96 0H192ZM75 45C58.4315 45 45 58.4315 45 75V198C45 214.569 58.4315 228 75 228C91.5685 228 105 214.569 105 198V75C105 58.4315 91.5685 45 75 45ZM144 105C127.431 105 114 118.431 114 135V198C114 214.569 127.431 228 144 228C160.569 228 174 214.569 174 198V135C174 118.431 160.569 105 144 105ZM213 45C196.431 45 183 58.4315 183 75V198C183 214.569 196.431 228 213 228C229.569 228 243 214.569 243 198V75C243 58.4315 229.569 45 213 45Z" fill="white"/>
</svg>
