<svg width="242" height="249" viewBox="0 0 242 249" fill="none" xmlns="http://www.w3.org/2000/svg">
<path d="M124.64 0C167.003 0 188.185 0.000318576 204.189 8.63574C216.552 15.3064 226.694 25.4477 233.364 37.8105C242 53.8148 242 74.9968 242 117.36V131.64C242 174.003 242 195.185 233.364 211.189C226.694 223.552 216.552 233.694 204.189 240.364C188.185 249 167.003 249 124.64 249H117.36C74.9968 249 53.8148 249 37.8105 240.364C25.4477 233.694 15.3064 223.552 8.63574 211.189C0.000317729 195.185 0 174.003 0 131.64V117.36C0 74.9968 0.000318576 53.8148 8.63574 37.8105C15.3064 25.4477 25.4477 15.3064 37.8105 8.63574C53.8148 0.000318576 74.9968 0 117.36 0H124.64ZM30 136C25.0294 136 21 140.029 21 145V183.357C21.0001 208.013 40.9872 228 65.6426 228C68.6012 228 71 225.601 71 222.643V166C71 149.431 57.5685 136 41 136H30ZM128.791 199.651C124.303 195.82 117.697 195.82 113.209 199.651L98.5615 212.155C92.1999 217.586 96.04 228 104.404 228H137.596C145.96 228 149.8 217.586 143.438 212.155L128.791 199.651ZM201 136C184.431 136 171 149.431 171 166V222.643C171 225.601 173.399 228 176.357 228C201.013 228 221 208.013 221 183.357V145C221 140.029 216.971 136 212 136H201ZM67.4287 21C41.7869 21 21 41.7869 21 67.4287C21.0001 70.5056 23.4944 72.9999 26.5713 73H52C76.8528 73 97 93.1472 97 118V177.506C97 179.533 99.4511 180.549 100.885 179.115C111.994 168.006 130.006 168.006 141.115 179.115C142.549 180.549 145 179.533 145 177.506V118C145 93.1472 165.147 73 190 73H215.429C218.506 72.9999 221 70.5056 221 67.4287C221 41.7869 200.213 21 174.571 21H67.4287Z" fill="black"/>
</svg>
