<svg width="2129" height="815" fill="none" xmlns="http://www.w3.org/2000/svg"><path d="M14 388s300-117.5 430-182.5 437-174 437-174" stroke="#000" stroke-width="27" stroke-linecap="round"/><path d="M16 666.5S303.5 454 430.5 352 761 74 811 57M414.5 558.5S498.5 455 599 341s139.5-156 190.5-210m-166 427.5s187-177 354-306S1318 14 1318 14M890.5 433.5c32.5 20-93.62 161.523-62.5 133 66.819-61.243 252.56-225.49 366.5-313.5C1361.5 124 1535 14.5 1535 14.5M955.5 559s7 10.5 174-118.5c64.04-49.466-71.65 79.428-76.5 105.5-3.45 18.566 143.34-91.941 162-92.5 23.48-.703-79.5 105.5-79.5 105.5m305-105.5s-61 79.5-30.5 92.5 134.5-77.5 141-54-20.5 54-13.5 67 319-39 397.5 50.5-468.5 267-453.5 156 121-176 181-213.5 431.63-235.197 453-239m-980 246s667-499 667-479.5-507.5 444-507.5 444m-880.5 35S773 284 798.5 299 623 558.5 623 558.5" stroke="#000" stroke-width="27" stroke-linecap="round"/></svg>