<svg width="2129" height="815" viewBox="0 0 2129 815" fill="none" xmlns="http://www.w3.org/2000/svg">
<path d="M14 388C14 388 314 270.5 444 205.5C574 140.5 881 31.5 881 31.5" stroke="black" stroke-width="27" stroke-linecap="round"/>
<path d="M16 666.5C16 666.5 303.5 454 430.5 352C557.5 250 761 74 811 57" stroke="black" stroke-width="27" stroke-linecap="round"/>
<path d="M414.5 558.5C414.5 558.5 498.5 455 599 341C699.5 227 738.5 185 789.5 131" stroke="black" stroke-width="27" stroke-linecap="round"/>
<path d="M623.5 558.5C623.5 558.5 810.5 381.5 977.5 252.5C1144.5 123.5 1318 14 1318 14" stroke="black" stroke-width="27" stroke-linecap="round"/>
<path d="M890.5 433.5C923 453.5 796.88 595.023 828 566.5C894.819 505.257 1080.56 341.01 1194.5 253C1361.5 124 1535 14.5 1535 14.5" stroke="black" stroke-width="27" stroke-linecap="round"/>
<path d="M955.5 559C955.5 559 962.5 569.5 1129.5 440.5C1193.54 391.034 1057.85 519.928 1053 546C1049.55 564.566 1196.34 454.059 1215 453.5C1238.48 452.797 1135.5 559 1135.5 559" stroke="black" stroke-width="27" stroke-linecap="round"/>
<path d="M1440.5 453.5C1440.5 453.5 1379.5 533 1410 546C1440.5 559 1544.5 468.5 1551 492C1557.5 515.5 1530.5 546 1537.5 559C1544.5 572 1856.5 520 1935 609.5C2013.5 699 1466.5 876.5 1481.5 765.5C1496.5 654.5 1602.5 589.5 1662.5 552C1722.5 514.5 2094.13 316.803 2115.5 313" stroke="black" stroke-width="27" stroke-linecap="round"/>
<path d="M1135.5 559C1135.5 559 1802.5 60 1802.5 79.5C1802.5 99 1295 523.5 1295 523.5" stroke="black" stroke-width="27" stroke-linecap="round"/>
<path d="M414.5 558.5C414.5 558.5 773 284 798.5 299C824 314 623 558.5 623 558.5" stroke="black" stroke-width="27" stroke-linecap="round"/>
</svg>
