<svg width="270" height="325" fill="none" xmlns="http://www.w3.org/2000/svg"><path fill-rule="evenodd" clip-rule="evenodd" d="M36.5 250c.247-.226.483-.464.71-.711-.42.819-.71 1.211-.71 1.211s33.5-21 23-54c-9.377-29.472-42.684-19.063-49.698-16.501l-.348.001C3.436 164.966 0 147.585 0 129.5c0-22.966 2.575-43.954 9.149-59.775C22.913 29.552 69.343 0 124.5 0c1.809 0 3.608.032 5.398.095A137.04 137.04 0 0 1 135 0c8.323 0 16.428.753 24.217 2.18C218.989 5.63 270 58.215 270 110c0 28.035-13.855 53.292-36.008 71.001L234 181s-21.5 18-28 23c-2.737 4.79-4.921 37.909-6.406 60.427-.685 10.389-1.221 18.521-1.594 20.573 0 .5-2 17.5-5 22-.359.538-.732 1.12-1.121 1.726C189.014 313.187 185.282 319 180 319c-3.402 0-4.553-3.857-5.551-7.198-.762-2.552-1.433-4.802-2.949-4.802-1.813 0-3.894 3.22-6.035 6.532-1.993 3.083-4.037 6.245-5.965 6.968-4 1.5-8 2-12.5.5-1.945-.648-2.862-2.511-3.762-4.336-1.181-2.398-2.331-4.732-5.738-4.164-2.747.458-2.979 1.335-3.334 2.679-.421 1.592-1.015 3.839-6.166 6.821-9.5 5.5-21.5 1.5-25-2-1.681-1.681-1.747-4.17-1.805-6.358-.038-1.427-.073-2.725-.549-3.589a150.83 150.83 0 0 1-3.653-.535c-.586.458-1.054 1.164-1.581 1.959-1.23 1.855-2.782 4.197-6.912 5.023-7.5 1.5-12.5-1.5-16-4-1.61-1.15-3.114-3.993-4.561-6.728-1.7-3.21-3.319-6.272-4.939-6.272-1.604 0-2.636 2.286-3.631 4.491-.867 1.919-1.705 3.776-2.869 4.009-2.5.5-5 0-8.5-3.5S42.5 285 42.5 285s-7-28.5-6-35Zm78.5-76c16.5-14 41.5-13 42-6 .218 3.049-4.022 5.813-8.713 8.871-6.08 3.963-12.916 8.42-11.787 14.629 1.311 7.209 11.426 7.975 18.243 8.492 3.585.272 6.257.474 6.257 1.508 0 .986-1.73 2.189-4.052 3.804C152.208 208.599 145 213.61 145 222c0 6.913 6.729 8.015 12.575 8.972 4.724.773 8.872 1.452 8.425 5.028-1 8-15 11-22 11l-.945.002h-.009c-6.815.022-15.019.048-25.046-9.502-10.5-10-19.5-49.5-3-63.5Zm-29.083 45.922c-1.885-7.351-3.248-12.663-5.169-12.423-2.311.289-2.718 7.322-3.267 16.838-.402 6.95-.88 15.224-2.233 23.162-1.323 7.765-4.196 16.139-6.381 22.509-2.125 6.194-3.6 10.492-2.367 10.492 1.027 0 6 0 9.5-11.5 1.249-4.103 2.192-8.142 3.008-11.641 1.473-6.308 2.535-10.86 4.24-10.86 1.182 0 2.157 2.618 3.528 6.3 1.651 4.431 3.876 10.403 7.724 15.201 5.133 6.401 15.666 10.714 19.248 6.499 2.318-2.727-1.019-6.352-5.912-11.668-3.899-4.236-8.787-9.546-12.588-16.33-4.637-8.277-7.29-18.622-9.331-26.579Zm-65.275-16.339c6.066-2.076 20.706-5.971 23.858 3.486 3.086 9.257-9.301 17.026-15.125 20.094-1.536.81-3.367.018-3.946-1.619l-6.485-18.31c-.53-1.497.196-3.136 1.698-3.651Z" fill="#000"/></svg>