<svg width="200" height="207" viewBox="0 0 200 207" fill="none" xmlns="http://www.w3.org/2000/svg">
<path d="M20 115C36.5685 115 50 128.431 50 145V201.643C50 204.601 47.6012 207 44.6426 207C19.9872 207 0.000146651 187.013 0 162.357V124C2.96367e-06 119.029 4.02944 115 9 115H20ZM92.209 178.651C96.6967 174.82 103.303 174.82 107.791 178.651L122.438 191.155C128.8 196.586 124.96 207 116.596 207H83.4043C75.04 207 71.1999 196.586 77.5615 191.155L92.209 178.651ZM191 115C195.971 115 200 119.029 200 124V162.357C200 187.013 180.013 207 155.357 207C152.399 207 150 204.601 150 201.643V145C150 128.431 163.431 115 180 115H191ZM153.571 0C179.213 1.12084e-06 200 20.7869 200 46.4287C200 49.5056 197.506 51.9999 194.429 52H169C144.147 52 124 72.1472 124 97V156.506C124 158.533 121.549 159.549 120.115 158.115C109.006 147.006 90.994 147.006 79.8848 158.115C78.4511 159.549 76 158.533 76 156.506V97C76 72.1472 55.8528 52 31 52H5.57129C2.49438 51.9999 7.13985e-05 49.5056 0 46.4287C1.12084e-06 20.7869 20.7869 -1.12084e-06 46.4287 0H153.571Z" fill="white"/>
</svg>
